<svg width="193" height="108" viewBox="0 0 193 108" fill="none" xmlns="http://www.w3.org/2000/svg">
<mask id="mask0_2848_20828" style="mask-type:alpha" maskUnits="userSpaceOnUse" x="0" y="0" width="193" height="108">
<rect width="193" height="108" fill="#D9D9D9"/>
</mask>
<g mask="url(#mask0_2848_20828)">
</g>
<g clip-path="url(#clip0_2848_20828)">
<path d="M153.985 86.6004C153.926 86.0304 153.516 85.7564 153.028 85.5701C152.733 85.5613 152.437 85.5438 152.14 85.5416C150.503 85.524 148.863 85.5109 147.226 85.4955C144.69 85.4933 142.155 85.4911 139.619 85.4868H136.183V84.9036C136.085 82.7706 134.892 81.2864 133.322 80.0302C132.79 79.6027 132.245 79.1884 131.63 78.7083C132.025 78.3707 132.365 78.1098 132.668 77.8117C133.952 76.5402 135.197 75.2095 136.087 73.6376C136.752 72.4648 137.245 71.1406 137.221 69.7551C137.192 67.986 136.939 66.2234 136.364 64.542C136.013 63.516 135.524 62.536 135.062 61.4575C136.024 60.3679 136.279 58.8794 136.388 57.3667C136.499 55.8102 136.523 54.2449 136.545 52.6819C136.556 51.9782 137.114 52.0878 137.469 52.0439C138.797 51.8773 139.894 51.2218 141.006 50.5532C142.316 49.7662 143.367 48.6744 144.37 47.5673C145.307 46.5304 146.103 45.3488 146.86 44.1672C147.466 43.2157 147.924 42.1678 148.445 41.1638C148.514 40.9621 148.584 40.7604 148.652 40.5587C148.669 40.482 148.684 40.4074 148.7 40.3307C148.724 40.2474 148.75 40.1641 148.776 40.0808C148.791 40.0041 148.807 39.9295 148.822 39.8528C148.846 39.7695 148.872 39.6862 148.896 39.6029C148.911 39.5262 148.927 39.4516 148.942 39.3749C148.966 39.2916 148.99 39.2083 149.014 39.125C149.029 39.0482 149.046 38.9737 149.062 38.897C149.086 38.8137 149.11 38.7304 149.134 38.6471C149.149 38.5703 149.164 38.4958 149.177 38.4191C149.208 38.2963 149.236 38.1735 149.267 38.0508C149.28 37.9762 149.295 37.8995 149.308 37.8228C149.328 37.7395 149.349 37.654 149.369 37.5707C149.448 36.7398 149.568 35.9089 149.594 35.0759C149.653 33.1401 148.996 31.3644 148.344 29.5799C147.878 28.304 147.102 27.2605 146.262 26.2411C146.182 26.1556 146.101 26.0679 146.022 25.9824C145.009 25.1011 144.043 24.1541 142.963 23.3583C142.148 22.7576 141.191 22.352 140.297 21.8566C138.531 20.8766 136.652 20.3374 134.626 20.3374C134.31 20.3001 133.992 20.2628 133.675 20.2255C131.375 20.379 129.295 21.1814 127.464 22.3477C126.919 21.7842 126.428 21.2362 125.896 20.7342C124.963 19.8529 124.067 18.908 123.038 18.1495C121.187 16.7903 119.236 15.5845 116.935 15.0957C114.598 14.598 112.27 14.0631 109.939 13.5414C109.767 13.5041 109.599 13.4559 109.429 13.412C109.311 13.4098 109.191 13.4076 109.073 13.4054C108.796 13.3682 108.519 13.3309 108.24 13.2936C107.608 13.2914 106.974 13.2871 106.339 13.2849C106.023 13.2432 105.705 13.1994 105.389 13.1555C103.963 13.1446 102.537 13.1314 101.111 13.1205C100.873 13.1358 100.636 13.1533 100.396 13.1709C99.6828 13.2103 98.9699 13.2476 98.2569 13.2871C98.0193 13.2871 97.7816 13.2871 97.544 13.2871C96.9095 13.3287 96.2772 13.3704 95.6428 13.412C95.4117 13.4361 95.1806 13.4603 94.9495 13.4844C94.8622 13.4975 94.7772 13.5129 94.6922 13.5282C94.4218 13.5523 94.1493 13.5786 93.8789 13.6049C93.7547 13.6181 93.6282 13.6334 93.5039 13.6488C92.5163 13.7781 91.5286 13.9075 90.5409 14.0368C90.493 14.039 90.445 14.0434 90.3949 14.0478L90.0678 14.0544C89.5794 14.0741 89.0932 14.0982 88.6049 14.1135C87.9028 14.1333 87.1986 14.1442 86.4965 14.1596C86.2959 14.6221 86.4682 14.9422 86.9151 15.0606C87.4188 15.1943 87.9399 15.3017 88.4588 15.3281C89.3243 15.3697 90.1943 15.339 90.977 15.339C90.9072 16.0098 90.7917 16.6675 90.7808 17.3274C90.7699 18.0749 90.8702 18.8225 90.8854 19.5723C90.9268 21.5014 90.8941 23.4328 90.9944 25.3598C91.0882 27.1224 91.1819 28.9025 91.5133 30.63C92.0628 33.504 92.8041 36.343 93.4647 39.1973C93.6587 40.0457 94.134 40.7165 94.7663 41.2865C95.4596 41.9135 96.3274 41.9091 96.9226 41.1791C97.2758 40.7429 97.5767 40.2167 97.7467 39.6818C98.0999 38.5747 98.3659 37.4369 98.6341 36.3035C98.7519 35.8103 98.802 35.2973 98.8609 34.7909C98.9851 33.7189 99.0636 32.6403 99.225 31.5727C99.5019 29.7246 99.8529 27.8853 100.128 26.035C100.361 24.461 100.533 22.8782 100.725 21.2976C100.895 19.8945 101.054 18.4871 101.22 17.0819C101.325 16.1852 101.429 15.2864 101.545 14.2933C103.413 14.4073 105.271 14.5586 107.131 14.6178C108.166 14.6506 108.698 15.0781 108.995 16.0932C110.067 19.7608 110.678 23.4942 110.735 27.3175C110.743 27.8151 110.708 28.315 110.743 28.8104C110.892 30.9917 111.086 33.173 111.206 35.3565C111.273 36.6061 111.225 37.8622 111.227 39.1162C111.238 39.1491 111.251 39.1798 111.256 39.2105C111.256 39.2236 111.232 39.2368 111.221 39.2499C111.227 40.1707 111.731 40.8568 112.315 41.4838C112.935 42.1525 113.765 42.2292 114.428 41.6132C114.899 41.1769 115.32 40.6464 115.638 40.0874C116.985 37.7241 117.188 35.0627 117.515 32.4408C117.672 31.1737 117.762 29.8956 117.868 28.6241C118.021 26.8396 118.213 25.0573 118.289 23.2684C118.361 21.565 118.305 19.8551 118.305 18.0684C121.063 19.5942 123.219 21.8566 125.478 23.9875C125.242 24.2746 125.002 24.4983 124.854 24.7701C124.767 24.9301 124.763 25.202 124.843 25.362C124.896 25.4694 125.199 25.5505 125.329 25.4957C125.848 25.2809 126.365 25.0485 126.838 24.7504C129.169 23.2837 131.6 22.1569 134.447 22.6436C135.561 22.8365 136.706 23.0557 137.735 23.5008C140.33 24.6254 142.617 26.2192 144.363 28.5013C145.704 30.2529 146.352 32.2742 146.496 34.4533C146.55 35.2754 146.513 36.1216 146.378 36.9327C146.11 38.5462 145.876 40.2145 145.004 41.6219C144.047 43.1719 142.944 44.6385 141.821 46.0766C140.833 47.3415 139.562 48.3127 138.171 49.0975C137.609 49.4154 136.974 49.6083 136.333 49.8736C136.27 48.6306 136.216 47.5476 136.163 46.526C136.414 46.3879 136.61 46.298 136.791 46.1818C138.854 44.827 140.587 43.1193 142.035 41.1265C142.436 40.5741 142.687 39.9098 143.007 39.296C143.027 39.239 143.044 39.182 143.064 39.125C143.083 39.0987 143.092 39.068 143.09 39.0351C143.112 38.9825 143.134 38.9299 143.158 38.8794C143.188 38.7786 143.221 38.6777 143.251 38.5791C143.269 38.5221 143.284 38.4651 143.299 38.4059C143.314 38.3423 143.332 38.2788 143.347 38.213C143.365 38.156 143.384 38.1012 143.402 38.0442C143.423 37.9412 143.445 37.8381 143.469 37.7373C143.487 37.6803 143.504 37.6233 143.524 37.5663C143.541 37.461 143.561 37.358 143.58 37.2528C143.594 37.198 143.609 37.141 143.622 37.084C143.631 35.7752 143.642 34.4642 143.652 33.1533C143.62 33.105 143.587 33.0568 143.554 33.0086C143.413 32.5 143.343 31.9541 143.112 31.4872C142.809 30.8667 142.261 30.3538 142.028 29.718C141.511 28.3084 140.432 27.4161 139.379 26.4844C138.472 25.6843 137.436 24.9981 136.233 24.9235C134.744 24.8293 133.239 24.9433 131.746 25.0419C129.93 25.1647 128.916 26.3507 128.179 27.8919C127.667 28.9661 128.216 29.843 128.626 30.7396C128.698 30.8952 129.062 31.0027 129.28 30.9873C131.125 30.8536 132.976 30.7286 134.622 29.7027C134.323 30.2858 133.872 30.7352 133.25 30.8646C132.032 31.1145 131.43 32.0769 130.669 32.9275C130.804 33.0064 130.985 33.0546 131.005 33.1379C131.155 33.7846 131.685 33.8438 132.165 33.8416C132.627 33.8416 133.102 33.7298 133.542 33.5786C134.264 33.3287 134.962 33.0086 135.67 32.717C135.479 33.0327 135.247 33.3418 134.94 33.4996C134.175 33.8943 133.383 34.2472 132.581 34.5585C132.26 34.6813 131.994 34.7427 132.001 35.1614C132.005 35.6437 132.393 35.5889 132.64 35.5867C133.743 35.5779 134.851 35.5823 135.943 35.4551C136.702 35.3653 137.436 35.0693 138.18 34.8654C136.553 36.5995 134.415 36.7201 132.223 36.7135C133.887 37.1629 135.5 37.7088 137.24 37.5378C136.634 38.1472 135.893 38.3423 135.071 38.3051C134.255 38.2678 133.44 38.2327 132.548 38.1933C133.601 40.4732 133.898 42.8715 134.024 45.2852C134.146 47.6112 134.181 49.9437 134.164 52.2719C134.146 54.3874 134.013 56.503 133.913 58.6163C133.874 59.4187 133.785 60.2188 133.719 61.0212C133.362 61.4399 133.335 61.8981 133.545 62.3957C134.26 64.1145 134.419 65.9516 134.672 67.769C134.678 67.826 134.685 67.883 134.691 67.94C135.045 70.2396 134.262 72.1995 132.895 73.9796C132.003 75.1415 131.098 76.2946 130.159 77.5048C127.978 76.1609 125.598 75.3936 122.988 75.455C122.944 75.4353 122.898 75.4177 122.853 75.398C121.627 75.3827 120.402 75.3673 119.174 75.352C119.057 75.352 118.939 75.3542 118.821 75.3542C118.542 75.3783 118.263 75.4046 117.986 75.4287C117.938 75.4331 117.89 75.4375 117.842 75.4397C113.99 75.7685 110.442 76.8054 107.578 79.6247C106.119 81.0606 105.452 82.7881 105.267 84.7699C105.256 84.8839 105.243 85.0001 105.232 85.0878H86.0714C85.9645 84.452 85.9384 83.8776 85.7618 83.3559C85.5263 82.6697 85.2799 81.9419 84.8504 81.3785C83.2348 79.252 81.2486 77.5771 78.6781 76.7156C76.9731 76.1456 75.279 75.5208 73.5413 75.0823C71.7143 74.6219 69.8109 74.5299 67.9598 74.8762C66.5557 75.1393 65.2062 75.7005 63.8326 76.1302C63.6669 76.1806 63.5034 76.242 63.3071 76.31C63.0564 75.1744 62.169 74.5956 61.3667 73.9687C60.8565 73.5697 60.5469 73.1181 60.4466 72.4691C60.2395 71.1297 59.9168 69.8034 59.7794 68.4573C59.7031 67.7317 59.8601 66.9666 59.9997 66.2388C60.3834 64.2372 61.0135 62.3234 62.108 60.5828C62.3064 60.2671 62.4939 60.0391 62.8907 59.9492C63.6451 59.776 63.8239 59.1753 63.8173 58.4848C63.8064 58.4102 63.7955 58.3357 63.7846 58.2612C63.7541 58.2173 63.7236 58.1735 63.6952 58.1296C63.3878 57.6232 63.0259 57.1431 62.7882 56.6082C62.193 55.2731 62.0339 53.8416 62.0033 52.3925C62.0011 52.3136 61.9968 52.2346 61.9924 52.1557C62.0382 50.277 61.9772 48.3894 62.1559 46.5238C62.3522 44.4806 62.7032 42.4462 63.1022 40.4316C63.7105 37.3514 64.5303 34.3195 65.821 31.4521C66.68 29.5426 67.539 27.5893 69.5405 26.5195C69.848 26.3551 69.8632 26.0504 69.5929 25.7698C69.4599 25.6295 69.377 25.4431 69.2462 25.3028C69.0129 25.0485 68.7883 24.7745 68.5114 24.5794C68.2433 24.3886 67.9162 24.2856 67.6132 24.1431C67.6655 24.0949 67.7156 24.0488 67.768 24.0006C68.845 23.9853 69.9221 23.9743 71.0013 23.9524C71.4047 23.9436 71.8102 23.8581 72.1263 24.2483C72.2463 24.3974 72.4708 24.4566 72.7434 24.6122C72.3029 23.8976 71.9454 23.3188 71.5726 22.7138C71.3829 21.861 71.1845 20.9578 70.9861 20.0567C71.034 20.0261 71.082 19.9954 71.13 19.9647C71.9585 20.6355 72.9091 20.9709 73.9469 21.0564C73.973 21.2625 73.9992 21.4664 74.0254 21.6724C74.0319 22.5471 74.0363 23.424 74.0428 24.2988C74.045 24.3426 74.0472 24.3864 74.0515 24.4281C74.1278 25.2173 74.1889 26.0087 74.2892 26.7957C74.3916 27.5784 74.6315 28.3522 74.638 29.1327C74.6685 32.0001 74.6119 34.8676 74.6271 37.7351C74.6293 38.4761 74.6969 39.2346 74.8735 39.9515C75.2136 41.3304 75.896 42.5361 77.0211 43.4415C77.8474 44.108 78.713 43.8931 79.1337 42.911C79.3278 42.4572 79.5284 41.9793 79.5829 41.497C79.7835 39.6884 79.9077 37.871 80.0909 36.0602C80.2653 34.3283 80.4332 32.5964 80.6839 30.8777C80.9019 29.3826 81.2443 27.9094 81.5037 26.4209C81.7283 25.1362 81.8678 23.834 82.1273 22.5559C82.559 20.4338 83.0561 18.3249 83.5335 16.1699C84.0721 16.251 84.6978 16.6697 85.3388 16.1721C84.9507 15.8323 84.5299 15.5429 84.2094 15.1658C83.8911 14.791 83.6186 14.3459 83.8213 13.7211C84.2312 14.0741 84.5779 14.4139 84.966 14.6923C85.2581 14.9028 85.6375 15.0694 85.9231 14.7033C86.2044 14.3393 85.9166 14.0697 85.6528 13.8527C84.9921 13.3068 84.6956 12.5834 84.6041 11.7547C84.5648 11.3951 84.5277 11.0378 84.4885 10.6783C84.5299 10.3999 84.5692 10.1215 84.6106 9.84084V9.60189C84.5823 9.20947 84.4056 8.99025 83.9827 9.00121C83.588 9.00998 83.4027 9.12836 83.2719 9.57339C82.9863 10.5599 82.5655 11.507 82.1992 12.4715C82.197 13.0284 82.1949 13.5874 82.1927 14.1442C82.2537 14.3613 82.3148 14.5761 82.3954 14.8611C81.9986 14.9378 81.6302 15.0102 81.2617 15.0825H80.9041C79.3758 15.2294 77.9128 15.0189 76.5588 14.2495C76.3626 14.1377 76.1969 13.9667 76.0181 13.8242C75.8982 13.7058 75.7783 13.5874 75.6584 13.469C75.2376 12.978 74.8277 12.4759 74.3873 12.0068C74.1671 11.7722 73.9142 11.4741 73.6329 11.4193C72.8088 11.2505 72.4141 11.667 72.3378 12.5285C72.2266 13.8022 72.7259 14.8392 73.4738 15.7994C73.6264 15.9572 73.7812 16.1173 73.9338 16.2751C74.6358 16.6829 75.3313 17.1016 76.0421 17.494C76.2492 17.608 76.4934 17.654 76.8009 17.8864C76.2536 18.1911 75.7064 18.4959 75.1569 18.7984C74.9934 18.8905 74.7645 18.9299 74.6685 19.0658C74.263 19.649 73.864 19.467 73.428 19.1207C72.9221 18.7195 72.3749 18.3621 71.8996 17.9281C71.6053 17.6584 71.3436 17.3077 71.1866 16.9416C70.9948 16.4943 70.7397 16.1786 70.2688 16.3387C69.994 16.4329 69.8022 16.7684 69.5711 16.9942C69.5972 17.0621 69.6234 17.1279 69.6496 17.1959C69.4402 17.1279 69.2157 17.0884 69.0238 16.9854C67.2185 16.0164 65.3784 15.1373 63.366 14.6901C63.1545 14.6419 62.9365 14.6309 62.7206 14.6046C62.0077 14.6046 61.2947 14.6068 60.5818 14.6068C58.8136 14.7953 57.1261 15.2754 55.4887 15.9616C55.0592 16.1414 54.61 16.2773 54.1696 16.4329C54.0911 16.4724 54.0104 16.5119 53.932 16.5513C53.1841 17.038 52.4123 17.494 51.6928 18.0201C50.4261 18.9497 49.4755 20.1729 48.6928 21.5234C48.0518 22.6305 47.3671 23.7244 46.8548 24.8907C46.1353 26.5349 45.4659 28.2163 44.9449 29.9328C44.4892 31.4411 44.269 33.0217 43.9398 34.5695C43.9201 34.6593 43.8547 34.7383 43.8089 34.8238C43.8068 34.9422 43.8046 35.0627 43.8024 35.1811C43.7653 35.5406 43.7261 35.898 43.689 36.2575C43.689 36.6565 43.6912 37.0533 43.6912 37.4523C43.9572 39.581 45.0234 41.3041 46.4165 42.8606C46.543 43.0031 46.6782 43.139 46.8112 43.2771C46.8897 43.3648 46.9703 43.4525 47.0488 43.5402C48.5881 45.2786 50.5329 46.423 52.6063 47.381C53.0882 47.5191 53.5678 47.6572 54.0497 47.7953C54.9981 47.8194 55.9465 47.8414 56.8971 47.8633C56.9364 47.8611 56.9756 47.8611 57.0149 47.8611C57.839 47.7646 58.6631 47.6682 59.435 47.5805C59.4001 48.749 59.3325 49.9503 59.3303 51.1517C59.3281 53.0567 59.2845 54.9772 59.895 56.8143C60.1828 57.6824 60.5971 58.5089 60.9742 59.4011C60.5295 60.1575 59.9277 60.9861 59.5331 61.9025C59.0142 63.1082 58.698 64.4039 58.2206 65.6293C57.6602 67.074 57.6384 68.5757 57.5905 70.084V70.5619C57.6362 71.2393 57.6798 71.9189 57.7256 72.5985C57.7801 72.7213 57.8346 72.844 57.8892 72.969C57.9131 73.083 57.9371 73.197 57.9611 73.311C57.9851 73.3943 58.0091 73.4776 58.0309 73.5609C58.0483 73.6376 58.0636 73.7144 58.0788 73.7889C58.1072 73.8722 58.1377 73.9555 58.166 74.0366C58.1988 74.1287 58.2315 74.2208 58.2663 74.3128L58.4037 74.6351C58.4299 74.6899 58.456 74.7469 58.4844 74.8017C58.5454 74.9047 58.6065 75.0056 58.6675 75.1064C59.2976 75.6896 59.9277 76.2749 60.56 76.8559C60.6559 76.9435 60.7671 77.0181 60.7955 77.0422C59.847 77.8007 58.8398 78.4825 57.9807 79.3199C56.5308 80.7339 55.6456 82.5338 54.8869 84.3906C54.7932 84.6208 54.7757 84.9168 54.4007 84.7852C50.9537 84.8159 47.5067 84.8444 44.0597 84.8751C43.7828 84.8773 43.5059 84.8817 43.229 84.8839C42.4354 84.9233 41.6439 84.965 40.8525 85.0045C40.58 85.1316 40.3074 85.261 40.0349 85.3881C40.024 85.5065 40.0109 85.6227 40 85.7411C40.2834 85.9077 40.5669 86.0743 40.8503 86.2409H40.9702C41.2079 86.2804 41.4455 86.3198 41.6832 86.3593H42.2784C42.516 86.3987 42.7537 86.436 42.9913 86.4755C43.5059 86.4755 44.0204 86.4777 44.535 86.4798C44.814 86.5171 45.0909 86.5544 45.3678 86.5917C46.2792 86.5938 47.1905 86.596 48.1019 86.5982C48.4595 86.6355 48.8148 86.6728 49.1724 86.71H49.2901C49.8832 86.7122 50.4784 86.7144 51.0736 86.7166C51.6274 86.7166 52.1812 86.7166 52.7372 86.7188C53.2343 86.7605 53.7314 86.8043 54.2481 86.8503C53.9298 89.1632 53.6115 91.4826 55.0134 93.5981C55.1682 93.7362 55.3361 93.859 55.4734 94.0102C56.4175 95.0516 57.2503 96.2222 58.3121 97.121C60.5556 99.0239 63.2156 99.5654 66.0456 98.8617C68.167 98.3356 70.2884 97.9914 72.473 98.0352C73.1838 98.0506 73.8945 98.0045 74.6031 97.987C74.6533 97.976 74.7034 97.9651 74.7536 97.9541C77.3437 98.0133 79.633 97.178 81.604 95.5163C82.1338 95.0691 82.5786 94.4728 82.9383 93.8699C83.9696 92.1359 84.9355 90.3623 85.9275 88.6041C86.0278 88.1657 86.1259 87.725 86.2262 87.2844C86.2741 87.2515 86.3243 87.2164 86.3723 87.1836C87.639 87.1879 88.9079 87.1923 90.1747 87.1945C90.4516 87.1967 90.7263 87.1989 91.001 87.2011C91.0838 87.2252 91.1667 87.2515 91.2495 87.2756C92.2023 87.2756 93.1529 87.2756 94.1057 87.2734C96.5999 87.2866 99.092 87.2997 101.586 87.3151C102.02 87.3546 102.456 87.394 102.892 87.4313C103.051 87.4313 103.208 87.4291 103.365 87.4269H104.931C104.375 90.1628 105.192 92.3704 107.292 94.1155C107.796 94.532 108.301 94.9485 108.772 95.4023C109.956 96.5445 111.345 97.2329 112.983 97.3841C114.326 97.5091 115.671 97.6099 117.016 97.7217C117.068 97.7261 117.121 97.7305 117.171 97.7371C118.187 97.7349 119.203 97.7349 120.219 97.7349C120.271 97.7546 120.323 97.7721 120.376 97.7919C122.19 97.8555 123.932 97.463 125.624 96.8689C128.34 95.9131 130.924 94.7052 133.056 92.6774C134.48 91.3225 135.372 89.6805 135.827 87.7799C135.864 87.7426 135.904 87.7031 135.941 87.6659C136.1 87.6746 136.257 87.6834 136.416 87.6922C136.652 87.7009 136.887 87.7097 137.125 87.7207C137.484 87.7272 137.844 87.736 138.204 87.7426C138.479 87.736 138.753 87.7294 139.028 87.7229C139.303 87.7316 139.58 87.7404 139.857 87.7514C140.057 87.7448 140.258 87.7404 140.456 87.736C140.731 87.7426 141.006 87.7492 141.28 87.7557C142.152 87.7689 143.025 87.7799 143.897 87.7908C144.453 87.8325 145.006 87.8719 145.56 87.9114C146.075 87.8982 146.587 87.8829 147.099 87.8697C147.143 87.8588 147.189 87.8478 147.232 87.839C148.656 87.8632 150.08 87.8873 151.504 87.9092C151.741 87.918 151.979 87.9267 152.217 87.9333C152.496 87.9289 152.775 87.9224 153.056 87.9158C153.171 87.8719 153.289 87.8281 153.407 87.7842C153.974 87.576 154.037 87.1046 153.985 86.6026V86.6004ZM50.2146 35.1701C50.1296 36.0755 50.3236 36.8976 50.5656 37.7351C50.897 38.8904 51.61 39.695 52.6565 40.2803C54.0693 41.0717 55.5628 41.6241 57.1173 42.0363C58.1835 42.3191 59.2496 42.3432 60.3376 42.0253C60.1763 43.0009 60.0149 43.972 59.847 44.9783C58.2729 44.9783 56.7096 45.0046 55.1485 44.9629C54.7125 44.9498 54.259 44.7898 53.8513 44.61C50.9406 43.3429 48.4922 41.4751 46.6128 38.886C45.9369 37.9543 45.7123 36.8538 45.6207 35.7533C45.3177 32.1536 46.2378 28.7841 47.897 25.6514C48.9522 23.6586 50.1579 21.6987 51.9719 20.2716C54.5969 18.2043 57.6144 17.0358 60.8957 16.5228C62.9845 16.1984 64.9009 16.8341 66.8021 17.551C67.5412 17.8294 68.2564 18.1736 68.9802 18.4937C69.2985 18.634 69.51 18.8072 69.5187 19.2412C69.5275 19.6556 69.7433 20.0633 69.8458 20.4777C70.0333 21.2428 70.2055 22.0122 70.393 22.819C70.1946 22.8431 70.0638 22.8584 69.9286 22.8738C69.8305 22.0868 69.401 21.5299 68.8014 21.0827C67.454 20.0765 65.9453 19.4868 64.2752 19.3158C64.2294 19.3158 64.1836 19.3114 64.1378 19.3114C61.733 19.2368 59.3499 19.3223 57.0977 20.333C55.2227 21.1748 53.6856 22.3367 52.7917 24.2944C51.6819 26.7212 50.7204 29.1963 50.2756 31.8291C50.0925 32.9143 50.3171 34.0631 50.2146 35.1701ZM83.4856 87.5979C83.3722 87.9574 83.261 88.3213 83.0975 88.6568C82.3998 90.0861 81.6934 91.5111 80.9739 92.9273C80.7799 93.3065 80.5248 93.6551 80.237 94.1133C79.221 92.5546 79.3016 90.7942 78.6127 89.1456C78.4361 89.3473 78.1374 89.5315 78.0938 89.7638C77.952 90.5114 77.7733 91.2897 77.8496 92.0306C77.9586 93.0785 78.2834 94.1045 79.0116 94.9529C77.4266 96.1389 75.6148 96.3757 73.6656 96.3735C73.6656 96.163 73.6983 95.946 73.6569 95.7465C73.6089 95.5251 73.5479 95.1962 73.3974 95.1283C72.8109 94.8696 72.8088 94.3478 72.8371 93.8875C72.9505 92.0679 73.1227 90.2505 73.2753 88.3849C73.2034 88.4353 73.0203 88.4945 72.9592 88.6173C72.5733 89.3934 72.146 90.1584 71.8625 90.974C71.4744 92.0854 71.1975 93.2473 71.2935 94.4421C71.3458 95.0713 71.5355 95.6895 71.6663 96.3318H63.6015C64.3689 93.9116 64.7701 91.4913 64.6676 89.0009C64.6044 88.9681 64.5412 88.9352 64.4779 88.9023C64.3275 89.1149 64.1182 89.3079 64.0353 89.5468C63.5753 90.8753 63.1523 92.2192 62.7054 93.5521C62.4874 94.2097 62.2519 94.8608 62.0142 95.5119C61.8747 95.889 61.6261 95.9898 61.2817 95.7531C60.6952 95.3497 60.0498 95.0077 59.5396 94.5232C58.4408 93.4709 57.3179 92.4187 56.666 90.9893C56.6508 90.9477 56.6355 90.9082 56.6202 90.8665C56.5875 89.6411 56.5548 88.4156 56.5243 87.1901C56.5156 87.1551 56.5025 87.1222 56.5003 87.0893C56.5003 87.0761 56.5221 87.0608 56.5352 87.0476C56.7401 86.037 56.8666 85.0001 57.1653 84.0179C57.6689 82.3562 58.2969 80.723 59.6966 79.5852C60.3005 79.092 60.9895 78.5965 61.7199 78.4014C62.2432 78.2611 62.8384 78.2699 63.39 78.0901C64.4038 77.7613 65.4133 77.3601 66.4554 77.1956C67.4279 77.04 68.4439 77.1058 69.4359 77.1606C70.3451 77.211 71.2521 77.3579 72.1547 77.4982C72.7957 77.5968 73.4585 77.6714 74.0559 77.9016C75.8655 78.5921 77.7013 79.2498 79.4259 80.1201C81.0764 80.9532 82.3671 82.3299 83.1978 83.9763C83.5444 84.6603 83.3068 85.6402 83.3504 86.4864C83.3635 86.7232 83.4485 86.9578 83.4856 87.1945C83.5052 87.3261 83.5248 87.4751 83.4856 87.5979ZM133.556 87.2844C133.444 87.5146 133.529 87.8303 133.466 88.0933C132.984 90.0466 131.822 91.5045 130.165 92.5853C129.786 92.833 129.38 93.0435 128.824 93.3657C128.38 91.5834 127.95 89.8669 127.486 88.01C126.302 90.119 126.862 92.0263 127.573 94.0672C126.193 94.5035 124.754 94.9595 123.243 95.4352C122.713 92.9996 123.134 90.5772 122.645 88.2512C122.571 88.2271 122.499 88.2052 122.425 88.181C122.24 88.4792 121.967 88.7554 121.885 89.0799C121.339 91.1998 121.322 93.3394 121.712 95.5119C118.754 95.7553 115.832 95.1677 112.928 94.7622C113.323 92.9185 113.698 91.1559 114.073 89.3934C113.985 89.3605 113.896 89.3298 113.809 89.2969C112.501 90.6254 112.104 92.4647 111.26 94.1769C109.924 93.0018 108.234 92.3047 107.22 90.8139C106.825 90.2352 106.572 89.4876 106.49 88.7883C106.368 87.7645 106.455 86.7166 106.455 85.6775C106.459 82.9788 107.706 80.9641 109.83 79.4098C111.618 78.1032 113.674 77.5311 115.778 77.0005C117.853 76.4766 119.796 77.1255 121.789 77.4061C122.493 77.5048 123.199 77.5881 123.901 77.7021C126.263 78.0835 128.419 78.91 130.198 80.5958C130.756 81.1242 131.408 81.556 132.005 82.0493C133.026 82.8933 133.776 83.8426 133.839 85.3004C133.87 86.0173 133.865 86.6399 133.556 87.2844Z" fill="#1D1D1D"/>
<path d="M74.7532 97.952C77.3433 98.0112 79.6326 97.176 81.6014 95.5143C82.1334 95.067 82.5782 94.4707 82.9357 93.8679C83.967 92.1338 84.9329 90.3603 85.9249 88.6043C86.0731 88.8432 86.2912 89.0646 86.3566 89.3255C86.6618 90.5203 86.4569 91.691 86.0448 92.8222C85.3166 94.8281 83.9256 96.4065 82.3274 97.678C79.698 99.7672 76.7547 101.216 73.264 101.306C71.3672 101.354 69.4704 101.633 67.5844 101.894C65.814 102.139 64.0938 101.876 62.3692 101.578C61.6541 101.455 60.9389 101.322 60.2325 101.151C58.7674 100.795 57.3001 100.418 56.2906 99.1644C55.3269 97.9674 54.8036 96.5643 54.5137 95.0648C54.5137 94.9048 54.5137 94.747 54.5159 94.5869C54.6794 94.2581 54.8451 93.9293 55.0086 93.5982C55.1634 93.7341 55.3313 93.8569 55.4686 94.0104C56.4105 95.0517 57.2456 96.2224 58.3073 97.1212C60.5509 99.0241 63.2108 99.5655 66.0408 98.8618C68.1622 98.3335 70.2836 97.9915 72.4682 98.0353C73.1768 98.0507 73.8898 98.0047 74.5984 97.9871C74.6485 97.9762 74.6987 97.9652 74.7488 97.9542L74.7532 97.952Z" fill="#D9D9D9"/>
<path d="M43.7493 33.9463L43.774 33.9236L43.7493 33.9031L43.7246 33.9236L43.7493 33.9463Z" fill="#1D1D1D"/>
<path d="M101.839 65.0595C101.421 65.7676 101.072 66.5305 100.564 67.164C100.143 67.688 99.4976 67.962 98.7738 67.9488C98.5688 67.9445 98.3617 68.0365 98.172 68.0804C97.9366 69.5887 98.1699 71.1298 97.3719 72.6359C97.1647 72.3991 96.9184 72.2259 96.829 71.9936C96.6611 71.5551 96.5455 71.086 96.478 70.619C96.3537 69.7443 96.2796 68.8608 96.2032 68.1396C95.2199 67.8633 94.2563 67.6858 93.3689 67.3153C92.3769 66.901 91.8928 66.0525 91.943 64.9411C92.0215 63.4438 93.0571 62.3696 94.5462 62.1832C96.4147 61.9486 98.2745 62.0692 100.126 62.3235C101.314 62.4858 101.831 63.139 101.828 64.3448C101.828 64.5837 101.837 64.8227 101.841 65.0616L101.839 65.0595Z" fill="#1D1D1D"/>
<path d="M82.5707 62.4427C81.2451 63.1859 79.9522 62.8461 79.1062 61.5372C79.0299 61.4188 78.9056 61.3289 78.8053 61.2259C78.7138 60.7852 78.5633 60.3489 78.5393 59.9038C78.4609 58.5072 78.7661 57.1764 79.4921 55.9859C79.7821 55.5123 80.2334 55.1111 80.6804 54.769C81.5961 54.0653 83.1615 54.5213 83.5998 55.4268C83.9094 56.067 84.1623 56.7905 84.2015 57.4921C84.2538 58.448 84.1623 59.4324 83.9791 60.373C83.8134 61.2193 83.3054 61.934 82.5707 62.4405V62.4427Z" fill="#1D1D1D"/>
<path d="M112.89 60.0397C112.79 60.5023 112.744 60.9847 112.581 61.4232C112.034 62.8899 110.623 63.3153 109.332 62.4405C109.252 62.3857 109.164 62.344 109.079 62.2958C107.959 61.1118 107.494 59.667 107.536 58.0709C107.562 57.1106 107.895 56.2226 108.491 55.4399C109.269 54.4182 111.635 54.1836 112.426 55.8017C112.96 56.8957 113.085 58.0336 112.956 59.2219C112.928 59.4938 112.91 59.7679 112.888 60.0397H112.89Z" fill="#1D1D1D"/>
<path d="M63.7849 58.2613C63.7544 58.2174 63.7239 58.1736 63.6934 58.1275C63.7239 58.1714 63.7544 58.2152 63.7849 58.2613Z" fill="#D9D9D9"/>
<path d="M111.256 39.2084C111.256 39.2216 111.232 39.2347 111.221 39.2479C111.223 39.204 111.225 39.158 111.227 39.1141C111.238 39.147 111.251 39.1777 111.256 39.2084Z" fill="#1D1D1D"/>
<path d="M136.417 87.6901C136.938 89.3299 136.683 90.9434 136.024 92.4473C134.302 96.389 131.156 98.5746 127.031 99.3485C124.811 99.765 122.561 99.9974 120.285 99.9821C118.199 99.9689 116.108 100.221 114.021 100.173C112.264 100.133 110.441 100.05 108.919 98.978C107.282 97.8249 105.723 96.5907 105.23 94.4444C105.145 94.0783 104.585 93.8109 104.225 93.5215C103.305 92.7849 102.538 91.9211 102.416 90.7088C102.363 90.2002 102.603 89.6522 102.758 89.137C102.932 88.5582 103.159 87.9948 103.364 87.4248H104.927C104.371 90.1608 105.189 92.3684 107.291 94.1112C107.794 94.5277 108.3 94.9443 108.771 95.3981C109.955 96.5402 111.344 97.2286 112.981 97.3799C114.324 97.5048 115.669 97.6057 117.015 97.7175C117.067 97.7219 117.119 97.7262 117.169 97.7306C118.185 97.7306 119.201 97.7306 120.217 97.7306C120.27 97.7504 120.322 97.7679 120.374 97.7876C122.188 97.8512 123.93 97.4588 125.622 96.8647C128.339 95.9089 130.923 94.7009 133.055 92.6731C134.479 91.3183 135.37 89.6763 135.826 87.7756C135.863 87.7361 135.902 87.6989 135.939 87.6594C136.099 87.6682 136.256 87.6769 136.415 87.6857L136.417 87.6901Z" fill="#D9D9D9"/>
<path d="M139.856 87.7493C139.579 87.7405 139.304 87.7317 139.027 87.7208C139.304 87.7296 139.579 87.7383 139.856 87.7493Z" fill="#1D1D1D"/>
<path d="M153.408 87.7822C153.29 87.826 153.172 87.8699 153.057 87.9137C153.174 87.8699 153.292 87.826 153.408 87.7822Z" fill="#D9D9D9"/>
<path d="M58.6677 75.1066C58.6067 75.0057 58.5456 74.9027 58.4824 74.8018C58.5435 74.9027 58.6045 75.0057 58.6677 75.1066Z" fill="#D9D9D9"/>
<path d="M117.842 75.4398C117.89 75.4354 117.938 75.431 117.986 75.4288C117.938 75.4332 117.89 75.4376 117.842 75.4398Z" fill="#1D1D1D"/>
<path d="M56.5349 87.0478C56.5305 87.096 56.5283 87.142 56.524 87.1903C56.5153 87.1574 56.5022 87.1223 56.5 87.0894C56.5 87.0763 56.5218 87.0631 56.5349 87.0478Z" fill="#D9D9D9"/>
<path d="M147.233 87.837C147.189 87.8479 147.145 87.8567 147.1 87.8677C147.143 87.8567 147.187 87.8479 147.233 87.837Z" fill="#1D1D1D"/>
<path d="M56.6211 90.8689C56.6429 90.893 56.6691 90.9149 56.6843 90.9412C56.6909 90.95 56.6734 90.9741 56.6669 90.9895C56.6516 90.9478 56.6364 90.9083 56.6211 90.8667V90.8689Z" fill="#D9D9D9"/>
<path d="M117.17 97.735C117.118 97.7306 117.066 97.7262 117.016 97.7219C117.068 97.7262 117.12 97.7306 117.17 97.735Z" fill="#1D1D1D"/>
<path d="M120.376 97.7898C120.323 97.7701 120.271 97.7504 120.219 97.7328C120.271 97.7525 120.323 97.7723 120.376 97.7898Z" fill="#1D1D1D"/>
<path d="M117.156 64.9414C117.673 66.1954 118.068 67.4715 118.02 68.8549C117.981 69.9731 117.675 70.9728 116.794 71.7161C116.055 72.3409 115.227 72.4396 114.361 72.0143C113.515 71.5977 113.11 70.8435 113.136 69.9468C113.164 68.9492 113.38 67.956 113.456 66.9584C113.568 65.5004 113.635 64.0381 113.705 62.5757C113.725 62.1635 113.814 61.9004 114.298 62.089C114.405 63.7837 114.178 65.45 113.884 67.1119C113.727 67.9955 113.879 68.8396 114.246 69.6442C114.383 69.9446 114.514 70.2274 114.965 70.223C115.425 70.2186 115.73 70.0147 115.811 69.6354C115.992 68.776 116.173 67.899 116.191 67.0264C116.21 66.0288 116.02 65.0269 115.988 64.0271C115.979 63.7443 116.201 63.4549 116.317 63.1677L116.31 63.1611C116.594 63.7552 116.877 64.3494 117.159 64.9457L117.156 64.9414Z" fill="#1D1D1D"/>
<path d="M117.155 64.9412C116.871 64.3471 116.588 63.7529 116.307 63.1566C116.81 63.3846 117.286 64.3866 117.155 64.9412Z" fill="#D9D9D9"/>
</g>
<defs>
<clipPath id="clip0_2848_20828">
<rect width="114" height="92.991" fill="white" transform="translate(40 8.99913)"/>
</clipPath>
</defs>
</svg>
