<svg width="124" height="94" viewBox="0 0 124 94" fill="none" xmlns="http://www.w3.org/2000/svg">
<mask id="mask0_2848_20779" style="mask-type:alpha" maskUnits="userSpaceOnUse" x="7" y="0" width="117" height="94">
<rect x="7" width="117" height="94" fill="#D9D9D9"/>
</mask>
<g mask="url(#mask0_2848_20779)">
</g>
<g clip-path="url(#clip0_2848_20779)">
<path d="M35.8054 48.2866C36.0733 48.5919 35.9341 48.8938 35.8054 49.1991C35.5845 49.7144 35.3706 50.2297 35.1531 50.7467C35.061 51.1353 34.9079 51.5205 34.887 51.9125C34.8192 53.1461 35.2888 54.2113 36.0437 55.1621C36.7881 56.1006 37.7187 56.8258 38.731 57.4521C41.2966 59.0396 44.1178 59.9574 47.0486 60.5663C48.2958 60.8248 49.5498 61.066 50.8109 61.2273C51.8771 61.3627 52.959 61.387 54.0357 61.4321C56.7717 61.5483 59.5077 61.5309 62.2228 61.1284C63.8892 60.8821 65.5572 60.6271 67.2009 60.2697C70.3283 59.5896 73.3443 58.5833 76.0804 56.8744C77.7345 55.8404 79.2356 54.6329 80.0391 52.7974C80.6375 51.4337 80.6062 50.0475 79.7817 48.7533C79.4773 48.2762 79.4408 47.8233 79.7052 47.3341C79.8652 47.0964 80.0878 46.8813 80.1766 46.6193C80.7679 44.8948 81.3158 43.1564 82.2046 41.5464C82.5786 40.8698 82.7386 40.129 82.7786 39.3361C82.8169 38.5988 83.0482 37.8718 83.1874 37.1397C83.2552 36.7806 83.537 36.7806 83.7649 36.8534C83.904 36.8985 84.0849 37.1293 84.0762 37.2663C84.0136 38.2136 83.9231 39.1591 83.8083 40.1012C83.7144 40.8628 83.6866 41.6592 83.4274 42.367C82.8569 43.9284 82.1681 45.4482 81.5054 46.9767C81.4045 47.2109 81.3802 47.3636 81.5002 47.6117C82.6778 50.0284 82.6708 52.4191 81.1158 54.6659C80.5314 55.5125 79.7469 56.2221 79.046 56.9872C78.9103 57.1364 78.7416 57.2544 78.5433 57.4261C79.5695 57.8269 80.5401 58.2311 81.5263 58.5868C82.6534 58.9928 83.6605 59.5705 84.5806 60.346C85.3129 60.9636 86.1861 61.413 86.9218 62.0271C89.5256 64.1993 91.8999 66.5553 92.74 70.0078C92.8461 70.4415 92.86 70.8995 92.9157 71.3454C92.9452 71.446 92.9748 71.5466 93.0026 71.6473C93.0026 72.5928 93.0026 73.5383 93.0009 74.4821C92.9678 74.6088 92.933 74.7372 92.9 74.8638C92.8356 76.4877 92.5852 78.0786 92.0338 79.6539C92.2129 79.6695 92.3643 79.6817 92.5156 79.6956C92.7695 79.6956 93.0235 79.6921 93.2774 79.6904C99.2695 79.4475 105.262 79.6158 111.254 79.6487C112.91 79.6574 114.564 79.6279 116.22 79.6158C116.268 79.6227 116.319 79.6296 116.367 79.6383C116.808 79.7216 117.049 79.9801 116.985 80.4312C116.933 80.8025 116.677 81.0002 116.294 81.0106C112.652 81.1009 109.012 81.1911 105.369 81.2796C105.102 81.2865 104.834 81.2674 104.566 81.2605C104.531 81.2674 104.495 81.2726 104.46 81.2796C103.557 81.2275 102.656 81.1581 101.753 81.1269C100.934 81.0974 100.115 81.1078 99.2956 81.0974C98.7129 81.0905 98.1303 81.0783 97.5476 81.0679C97.5145 81.0748 97.4797 81.08 97.4467 81.087C95.9595 81.0315 94.4706 80.9812 92.9835 80.9135C92.5365 80.8927 92.0929 80.8215 91.6094 80.7695C91.5346 80.9204 91.4424 81.1009 91.3572 81.283C90.2649 83.62 88.5533 85.4364 86.447 86.8643C84.8589 87.9416 83.2204 88.9653 81.5211 89.8535C79.8269 90.7383 77.9641 91.205 76.0421 91.3143C75.0315 91.3716 74.0053 91.4202 73.0052 91.3074C70.8657 91.0645 69.3021 89.7147 68.8568 87.6693C68.662 86.7775 68.7228 85.806 69.102 84.9229C69.4603 84.0867 69.7943 83.2296 70.2552 82.4489C70.7075 81.6821 71.3041 80.9985 71.9215 80.164H63.9813C63.917 80.1623 63.8544 80.1588 63.79 80.1571C63.6352 80.1536 63.4804 80.1484 63.3256 80.1449C63.2891 80.1484 63.2526 80.1519 63.2178 80.1536C62.4298 80.0946 61.6419 80.0356 60.854 79.9766C60.6957 79.9714 60.5374 79.9645 60.3791 79.9593C59.3686 79.9333 58.3562 79.9072 57.3457 79.8812C57.25 79.876 57.1561 79.8708 57.0604 79.8656C56.9369 79.8604 56.8117 79.8552 56.6882 79.85C56.6534 79.8535 56.6169 79.8587 56.5821 79.8621C55.0654 79.7754 53.5504 79.6886 52.0337 79.6019C51.3762 79.5637 50.717 79.5429 50.0612 79.4909C48.628 79.3763 47.1982 79.215 45.7633 79.1352C44.7388 79.0779 43.7108 79.1248 42.6759 79.1248C42.9472 79.6088 43.2725 80.1085 43.516 80.6446C44.0413 81.8035 44.584 82.959 44.9997 84.1595C45.2658 84.9298 45.2519 85.7869 44.9249 86.5641C43.7786 89.281 41.761 90.9309 38.8267 91.4167C38.3083 91.5034 37.7831 91.5555 37.2612 91.6232C37.1604 91.6492 37.0595 91.6752 36.9586 91.7012C35.9793 91.7012 35.0001 91.7012 34.0208 91.703C33.8938 91.6995 33.7669 91.6978 33.6399 91.6943C32.8833 91.5694 32.1197 91.4687 31.3683 91.3161C28.9749 90.8303 26.912 89.7234 25.1866 87.9954C24.0473 86.8539 23.3463 85.5006 23.0854 83.9045C22.9359 82.9867 22.8298 82.0811 23.0211 81.1598C23.042 81.0575 23.0246 80.9482 23.0246 80.7972C22.8228 80.7972 22.6541 80.7972 22.4836 80.7972C16.7489 80.773 11.0143 80.7591 5.28132 80.7157C3.84113 80.7053 2.40267 80.6029 0.964219 80.5335C0.734623 80.5231 0.49633 80.485 0.284128 80.4052C0.160633 80.3583 -0.0115638 80.19 0.000611698 80.0963C0.0180053 79.9697 0.176287 79.7771 0.294564 79.7615C0.912038 79.68 1.53473 79.621 2.15916 79.5984C3.48108 79.5498 4.80299 79.5308 6.12491 79.4978C8.59307 79.4353 11.0612 79.3694 13.5294 79.3052C13.5642 79.2879 13.6007 79.2705 13.6355 79.2532C16.1558 79.2202 18.6744 79.1872 21.1948 79.1543C21.2365 79.1456 21.2782 79.1369 21.32 79.1283C21.9827 79.1283 22.6454 79.1283 23.3255 79.1283C23.6473 78.1897 23.9551 77.2545 24.2856 76.3281C25.7293 72.3013 28.1296 68.9807 31.4796 66.2846C33.8956 64.3381 36.4681 62.6482 39.1189 61.0573C39.3711 60.9064 39.6233 60.7537 39.919 60.5733C39.3815 60.2783 38.8962 60.0302 38.4284 59.7492C36.7429 58.7395 35.254 57.5146 34.2678 55.7762C33.6695 54.7214 33.2729 53.5867 33.3651 52.3671C33.4816 50.8213 34.0521 49.449 35.2053 48.3594C35.261 48.3074 35.3097 48.2467 35.3601 48.1894C35.5062 48.2206 35.6541 48.2519 35.8002 48.2831L35.8054 48.2866ZM33.9269 89.2515C35.5949 89.3643 37.2508 89.3521 38.8928 88.9618C40.3486 88.6148 41.4653 87.8046 42.3071 86.5901C42.8098 85.8632 42.9455 85.0599 42.5924 84.2619C41.8688 82.6241 41.0809 81.0141 40.326 79.4041C39.839 79.4041 39.4163 79.3347 39.0232 79.4163C37.7326 79.6834 36.435 79.9402 35.1757 80.3201C32.8033 81.0367 30.6673 82.2685 28.5783 83.5662C27.6756 84.1283 26.8529 84.8188 25.9693 85.4711C28.0235 87.9312 30.7021 88.9531 33.7373 89.2376C33.8017 89.2411 33.8643 89.2463 33.9286 89.2498L33.9269 89.2515ZM74.5567 89.3678C75.4177 89.222 76.1778 89.0745 76.9448 88.9652C78.2633 88.7744 79.5452 88.4465 80.7158 87.815C81.9211 87.1644 83.0709 86.4114 84.2571 85.7244C84.6502 85.4971 84.6589 85.2022 84.4189 84.9177C83.4152 83.7293 82.6221 82.376 81.3767 81.375C79.7643 80.079 78.1067 78.9062 76.0908 78.325C75.8508 78.2556 75.6855 78.207 75.4942 78.469C74.788 79.4353 74.0662 80.3913 73.3095 81.3195C72.1859 82.697 71.1753 84.1127 70.7666 85.8979C70.5005 87.0603 71.0014 88.4118 72.1216 88.8126C72.9165 89.0971 73.7792 89.1977 74.5567 89.3695V89.3678ZM74.0001 77.5876C74.1097 77.5807 74.1462 77.5911 74.1688 77.5755C74.2331 77.5321 74.2923 77.4801 74.3532 77.4315C75.3463 76.6213 76.0699 75.596 76.6926 74.4925C77.1431 73.6927 77.3744 72.8652 77.2753 71.9214C77.1692 70.9308 76.7709 70.1067 76.0891 69.4283C75.8595 69.1993 75.4681 69.116 75.1359 69.0171C75.0263 68.9842 74.781 69.0813 74.7532 69.1698C74.7097 69.3034 74.7602 69.5064 74.8419 69.6348C74.9759 69.8447 75.195 69.9991 75.3272 70.209C76.089 71.4252 76.2804 72.6657 75.562 73.9946C75.0489 74.9454 74.6123 75.9395 74.1584 76.9232C74.0679 77.121 74.0523 77.3534 73.9983 77.5911L74.0001 77.5876ZM44.8101 68.4724C44.7788 68.4221 44.7457 68.37 44.7144 68.3197C44.4361 68.4984 44.1422 68.6597 43.8795 68.861C42.528 69.9019 41.7262 71.3437 40.9817 72.8288C40.2547 74.2809 40.6652 76.3801 42.5037 76.9266C42.7437 76.5883 42.6759 76.2934 42.3941 76.0071C41.467 75.0599 41.4044 73.9981 41.9819 72.8461C42.7646 71.2847 43.6012 69.7579 44.8101 68.4706V68.4724Z" fill="#6C6C6C"/>
<path d="M91.2694 25.9616C91.2451 26.2132 91.2207 26.4665 91.1964 26.718C91.1651 26.7822 91.1338 26.8464 91.1025 26.9106C90.9877 27.3634 90.9302 27.8405 90.7494 28.2656C90.1406 29.6951 89.29 30.979 88.3038 32.1778C88.1855 32.3218 88.1542 32.5335 88.0673 32.707C87.9716 32.8961 87.9003 33.1372 87.7437 33.2517C86.7645 33.9648 85.8165 34.742 84.7573 35.3128C83.9084 35.7691 82.9274 36.0016 81.983 36.2462C81.7777 36.3 81.4159 36.0259 81.242 35.809C81.1446 35.6876 81.2176 35.3406 81.3255 35.1584C82.0178 33.9735 83.0944 33.1927 84.2302 32.4728C86.2479 31.1924 87.6411 29.3777 88.6412 27.242C88.7247 27.065 88.716 26.8447 88.7508 26.6452C88.7839 26.5671 88.8152 26.4907 88.8482 26.4127C88.8482 25.5383 88.8482 24.6639 88.8482 23.7895C88.8395 23.6628 88.8308 23.5362 88.8221 23.4095L88.7595 22.9619C88.723 22.8544 88.6865 22.7468 88.6499 22.6392C88.5265 21.7093 88.1229 20.8922 87.5715 20.1548C87.0445 19.447 86.4862 18.7617 85.907 18.0955C84.9468 16.9921 83.7119 16.3467 82.27 16.161C81.3064 16.0361 80.3949 16.3519 79.5252 16.737C79.1391 16.9088 78.7651 17.1274 78.4225 17.3755C77.0971 18.3349 75.8134 19.3515 74.4637 20.2728C73.5297 20.9095 72.5121 21.4213 71.5294 21.9869C71.4616 22.0251 71.3746 22.0788 71.3102 22.065C71.0702 22.0077 70.7223 21.9886 70.6336 21.8325C70.5449 21.6763 70.6423 21.2929 70.7919 21.1472C71.1641 20.7898 71.6094 20.507 72.0303 20.2017C72.6165 19.7749 73.2061 19.355 73.8358 18.9039C72.3973 17.8959 70.8458 17.2384 69.263 16.7526C68.9082 17.2887 68.5568 17.7485 68.282 18.2499C67.2297 20.167 66.5461 22.2228 66.0869 24.3499C65.7982 25.684 65.5373 27.0251 65.3233 28.3714C65.1512 29.4523 65.1007 30.5505 64.939 31.6331C64.7215 33.0834 63.5422 33.1997 62.6186 32.4207C61.5872 31.5498 61.1611 30.3735 61.0723 29.0862C61.008 28.1459 61.081 27.1969 61.0915 26.2531C61.0828 26.2184 61.0723 26.1837 61.0636 26.1472C61.2011 24.5754 61.2898 22.9966 61.495 21.4335C61.6307 20.3942 61.9055 19.3672 62.1716 18.3505C62.436 17.3356 62.7665 16.3363 63.0796 15.2953C62.3682 15.1704 61.615 15.0177 60.8567 14.9119C60.5001 14.8616 60.1261 14.7939 59.8687 15.2224C59.1973 16.3363 58.4546 17.4067 57.8058 18.5327C57.3275 19.362 56.9744 20.2624 56.5309 21.1125C55.529 23.0244 54.8802 25.0542 54.5202 27.1726C54.3619 28.106 54.3497 29.0619 54.2279 30.0022C54.0592 31.2999 53.9166 32.6063 53.6331 33.8815C53.4313 34.7906 52.8191 35.1515 51.8989 35.0127C51.5128 34.9554 51.1197 34.6935 50.8084 34.4315C50.0865 33.8225 49.7578 32.9533 49.4082 32.1067C49.2882 31.817 49.1629 31.5272 48.9994 31.26C48.4046 30.2833 48.1784 29.2024 48.0636 28.0869C48.0028 27.5005 47.881 26.9158 47.8758 26.3294C47.841 22.6028 48.6759 19.0618 50.2466 15.5989C49.6604 15.8123 49.1177 16.0448 48.5524 16.2061C47.4775 16.5115 46.8217 17.0996 46.4913 18.2499C46.166 19.3828 45.4476 20.396 45.0145 21.5063C44.6684 22.3929 44.4806 23.3419 44.2423 24.2683C43.8996 25.6129 44.1153 26.9592 44.2597 28.3037C44.3118 28.7826 44.3345 29.2666 44.3588 29.7489C44.3953 30.4342 44.4249 31.1195 44.4475 31.8048C44.4614 32.2455 44.4806 32.6879 44.458 33.1286C44.4336 33.6161 44.0509 33.9336 43.5813 34.0116C42.609 34.173 42.0037 33.6404 41.5445 32.9238C41.0018 32.0789 40.8105 31.1004 40.7079 30.1133C40.5896 28.9908 40.3444 27.8613 40.4018 26.7458C40.5166 24.4869 40.7705 22.2332 41.6384 20.1028C41.6663 20.0334 41.6871 19.9588 41.7376 19.8113C41.181 19.8113 40.6592 19.879 40.1635 19.794C39.5077 19.6812 38.8346 19.5285 38.2362 19.2474C37.6623 18.9785 37.5649 18.3644 37.8971 17.7988C38.2049 18.5448 38.8485 18.6333 39.5112 18.6853C39.5477 18.6905 39.586 18.6957 39.6225 18.701C40.0313 18.7114 40.44 18.7252 40.8488 18.7339C41.2106 18.7409 41.581 18.6957 41.9307 18.7617C42.235 18.8207 42.3898 18.7513 42.5986 18.5257C42.7916 18.3158 43.143 18.262 43.3795 18.0798C45.5155 16.423 47.7419 14.9101 50.3579 14.1138C51.6328 13.7252 52.953 13.4788 54.261 13.2117C54.8663 13.0885 55.4925 13.0729 56.1099 13.0087C56.143 13.0087 56.1778 13.0087 56.2108 13.0087C57.4736 13.0052 58.7364 13.0017 59.9992 12.9983C60.0687 13.026 60.1383 13.0538 60.2079 13.0798C61.9803 13.3348 63.7544 13.5864 65.5269 13.8484C67.9307 14.2058 70.2544 14.8529 72.4756 15.8331C73.3957 16.2391 74.2689 16.7544 75.1386 17.2627C75.4586 17.4501 75.6412 17.4622 75.9491 17.2141C76.744 16.5722 77.5441 15.9112 78.426 15.4046C79.9636 14.5233 81.6316 14.0982 83.4266 14.414C85.0095 14.6933 86.3992 15.3682 87.4915 16.5462C88.3264 17.4449 89.1405 18.3783 89.8432 19.381C90.6363 20.5122 91.0572 21.8134 91.1007 23.2152C91.1338 23.3419 91.1651 23.4685 91.1981 23.5969C91.2225 24.1642 91.2451 24.7315 91.2694 25.2989C91.2694 25.5192 91.2694 25.7395 91.2694 25.9599V25.9616Z" fill="#6C6C6C"/>
<path d="M35.8046 48.2866C35.6584 48.2553 35.5106 48.2241 35.3645 48.1929C34.0426 46.7859 33.6912 44.9815 33.3799 43.1859C33.1659 41.9593 33.0703 40.7084 32.992 39.4645C32.9311 38.5051 32.9798 37.5405 32.9798 36.6105C32.4128 36.7233 31.8614 36.876 31.2996 36.9367C30.0473 37.072 29.0384 36.5359 28.1583 35.6997C26.8521 34.4575 25.8328 33.0401 25.5214 31.2253C25.4345 30.7205 25.4501 30.1844 25.4971 29.6709C25.5736 28.8554 25.6641 28.0366 25.8397 27.2385C26.412 24.6379 27.7478 22.4224 29.4333 20.4029C30.0316 19.6864 30.7517 19.3498 31.7831 19.4973C33.3625 19.7246 34.8444 20.1843 36.2916 20.8141C36.3455 20.8384 36.4064 20.847 36.4238 20.8505C36.4968 20.5903 36.5629 20.3474 36.6308 20.1045C36.8221 20.278 36.9908 20.4862 37.21 20.6128C37.5109 20.7881 37.8396 20.9702 38.1753 21.024C38.6067 21.0917 39.0606 20.9963 39.4972 21.0431C39.7094 21.0656 40.0295 21.2183 40.0729 21.3762C40.1217 21.5514 39.9721 21.8845 39.8051 21.9973C38.9963 22.5507 38.1457 22.464 37.29 22.065C37.1021 21.9765 36.883 21.947 36.676 21.9036C36.1385 21.7908 35.5941 21.7041 35.0601 21.5757C33.9573 21.312 32.8668 20.998 31.7118 21.0344C31.357 21.0448 31.1187 21.1593 30.9152 21.4369C29.6681 23.1354 28.5792 24.9328 27.9966 26.9592C27.6139 28.2899 27.6209 29.7038 27.7983 31.0866C27.8452 31.4474 28.0122 31.8222 28.2157 32.131C29.0019 33.3298 29.8942 34.4228 31.3727 34.8201C31.4614 34.8444 31.557 34.8392 31.6492 34.8479C32.1171 35.0023 32.585 35.1549 33.0738 35.3146V35.0161C32.5728 34.8947 32.1101 34.7802 31.6475 34.6674C31.4057 34.4471 31.1692 34.2216 30.9204 34.0099C29.4976 32.7955 29.0593 31.2462 29.3724 29.4505C29.5202 28.5987 29.6176 27.726 29.8872 26.9106C30.1499 26.116 30.536 25.3422 30.983 24.6326C31.8405 23.2707 33.846 22.1708 35.8185 23.0174C36.3229 23.2343 36.8551 23.3991 37.3874 23.5396C38.0275 23.7079 38.0901 24.2666 38.2779 24.7454C38.2953 24.7888 38.2571 24.8703 38.2223 24.9154C37.57 25.7777 36.9856 26.7076 35.8619 27.0685C35.2653 27.2611 34.6931 27.53 34.1035 27.7468C33.9452 27.8041 33.7608 27.7937 33.5869 27.8145C33.7538 28.5067 34.0443 28.5553 35.7941 28.1979C35.5767 29.1486 34.3818 29.7611 32.1449 30.0664C32.5154 30.8627 33.1277 30.9547 34.9697 30.4759C34.9192 30.8922 34.7975 31.2167 34.4044 31.4353C33.3973 31.9974 32.4076 32.5873 31.3918 33.1789C31.4596 33.6022 31.5135 33.6594 32.4789 33.6074C32.9172 33.5848 33.3468 33.4009 33.8078 33.283C33.5503 33.5206 33.2981 33.7531 33.0459 33.9873L33.1312 34.1591C33.6095 34.0324 34.0861 33.9075 34.5696 33.7792C34.4183 34.3187 34.173 34.893 34.3887 35.5071L34.3557 35.6234C34.4026 37.2681 34.4183 38.9145 34.5052 40.5558C34.5887 42.1501 34.8879 43.715 35.4532 45.214C35.6219 45.6651 35.8463 46.111 36.1263 46.5013C36.7525 47.3705 36.6968 47.7956 35.8046 48.2848V48.2866Z" fill="#6C6C6C"/>
<path d="M79.773 32.4675C79.9905 32.2264 80.2061 31.9852 80.4236 31.7441C80.4009 31.7059 80.3783 31.6678 80.3557 31.6278C80.2288 31.6695 80.0948 31.699 79.9748 31.7545C79.6913 31.8881 79.3921 32.0043 79.1399 32.1848C78.7694 32.4467 78.4842 32.3808 78.2007 32.0356C79.1225 31.1594 79.8913 30.174 80.3035 28.9561C80.2722 28.9266 80.2427 28.8953 80.2114 28.8659C79.2112 29.6986 78.2128 30.5331 77.1257 31.4387C76.4561 30.6077 75.8195 29.8183 75.1324 28.9665C76.5987 28.7843 77.8893 28.335 78.8981 27.3114C78.8807 27.2628 78.8616 27.2159 78.8442 27.1674C78.3172 27.2819 77.7954 27.4172 77.2631 27.5039C76.4578 27.6358 75.6473 27.7382 74.8367 27.8457C74.5219 27.8874 74.3149 27.7607 74.2732 27.4259C75.6786 27.0176 76.7216 26.3473 77.4023 25.4151C77.2527 25.4637 77.0892 25.4862 76.9588 25.5643C76.0317 26.1212 75.0089 26.2236 73.9566 26.2513C73.6122 26.26 73.4331 26.1334 73.3009 25.8488C73.1548 25.5348 72.993 25.2295 72.9043 25.0508C73.4157 24.0896 73.8783 23.2117 74.3514 22.3391C74.4088 22.2332 74.5115 22.143 74.6106 22.0719C76.1534 20.9772 77.691 19.8755 79.2495 18.8033C79.7957 18.4286 80.394 18.0955 81.0967 18.2117C81.4689 18.2724 81.9212 18.3262 82.1751 18.5587C83.4187 19.6951 84.6607 20.8436 85.7999 22.0823C86.6296 22.9845 86.9444 24.1607 86.8227 25.3821C86.7079 26.5376 86.2435 27.5907 85.4747 28.4668C84.2954 29.8114 83.0343 31.0623 81.288 31.6903C80.9262 31.8204 80.6218 32.105 80.2775 32.2941C80.1279 32.3773 79.9435 32.3982 79.773 32.4467L79.7661 32.4641L79.773 32.4675Z" fill="#6C6C6C"/>
<path d="M57.8328 51.8778C58.1998 52.8962 58.0624 53.3768 57.0971 53.8938C56.2344 54.3553 55.3229 54.7283 54.4237 55.1187C54.2654 55.1881 54.0515 55.2054 53.8827 55.1638C53.0218 54.9539 52.173 54.6954 51.3102 54.4924C50.0944 54.2044 49.6926 53.0177 50.4945 52.0392C50.5814 51.9334 50.6562 51.8154 50.7362 51.7026C51.599 51.1127 52.5695 50.823 53.5992 50.7501C54.462 50.6894 55.3229 50.7276 56.1561 51.0087C56.2135 51.0277 56.2813 51.0312 56.3422 51.026C57.0397 50.9618 57.525 51.2619 57.8328 51.8778Z" fill="#6C6C6C"/>
<path d="M19.7941 41.0554C18.8774 41.3417 18.1887 41.8084 17.599 42.4347C17.5416 42.4954 17.5329 42.6064 17.5103 42.6966C17.3885 43.1599 17.0633 43.257 16.7293 42.9152C16.3762 42.5544 16.3658 42.1207 16.5589 41.6887C17.159 40.3458 18.2669 39.5547 19.6115 39.1279C20.5785 38.8208 21.6952 39.7265 21.7839 40.8385C21.85 41.6696 21.8083 42.5093 21.7909 43.3455C21.7857 43.5884 21.8204 43.7289 22.0605 43.8642C22.6675 44.2026 22.6919 44.5704 22.1683 45.0371C21.7056 45.4482 21.1664 45.5749 20.5855 45.3407C19.9472 45.0839 19.6515 44.527 19.6271 43.8989C19.6028 43.2692 19.7402 42.6359 19.7906 42.0009C19.8132 41.7216 19.7941 41.4388 19.7941 41.0554Z" fill="#6C6C6C"/>
<path d="M94.2813 39.3673C94.05 39.402 93.8169 39.4315 93.5856 39.4749C93.516 39.4888 93.4238 39.5217 93.3908 39.5755C93.2307 39.8392 92.7872 39.9936 92.5646 39.8184C92.2689 39.5859 92.2376 39.2598 92.4585 38.9787C93.0899 38.1772 93.9839 37.9395 94.9458 37.9794C95.7719 38.0141 96.3981 38.4669 96.6782 39.2407C96.9391 39.9607 96.9182 40.7327 96.3999 41.3417C95.9668 41.85 95.4432 42.2924 94.911 42.7001C94.5144 43.0037 94.0482 43.2206 93.6012 43.4531C93.0325 43.7497 92.6915 44.1522 92.8029 44.841C92.8446 45.096 92.895 45.4621 92.5402 45.4951C92.2654 45.5211 91.9019 45.4222 91.7018 45.2418C91.1296 44.7248 90.9974 44.0291 91.4027 43.3733C91.6897 42.9083 92.1106 42.4954 92.5489 42.1606C93.0464 41.7806 93.6465 41.5395 94.17 41.1907C94.4935 40.9756 94.7979 40.7032 95.0327 40.3961C95.1614 40.2279 95.2206 39.8861 95.1336 39.7091C95.0519 39.5443 94.7388 39.4888 94.5213 39.4003C94.4535 39.3725 94.3648 39.3968 94.2865 39.3968C94.2865 39.3881 94.2831 39.3795 94.2831 39.3691L94.2813 39.3673Z" fill="#6C6C6C"/>
<path d="M45.4888 50.45C44.4487 51.1821 43.859 51.0937 43.0293 50.0787C42.8745 49.6207 42.638 49.1714 42.5841 48.7012C42.4832 47.8129 42.678 46.9524 43.2415 46.2359C43.6485 45.7171 44.4643 45.613 44.9931 46.0156C45.3201 46.2636 45.7201 46.5933 45.8019 46.9524C46.0697 48.1322 46.2228 49.3414 45.4905 50.4483L45.4888 50.45Z" fill="#6C6C6C"/>
<path d="M65.4166 47.2231C65.4601 48.1755 65.1383 48.9614 64.4338 49.6207C63.5381 50.4604 62.6145 50.0666 62.2144 49.1887C61.6526 47.9517 61.7656 46.7095 62.604 45.594C62.9849 45.0874 63.6198 44.9087 64.1694 45.096C64.7452 45.2938 65.4044 46.1405 65.4166 46.7026C65.4201 46.8761 65.4166 47.0478 65.4166 47.2213V47.2231Z" fill="#6C6C6C"/>
<path d="M63.0344 84.9385C63.0344 85.0166 63.0657 85.1155 63.0292 85.171C62.5248 85.9413 62.0673 86.7689 61.1263 87.0933C61.0185 87.1297 60.7141 86.9337 60.6845 86.8053C60.5158 86.0558 61.8482 84.4909 62.6013 84.5083C63.0014 84.5169 63.0292 84.5464 63.0327 84.9402L63.0344 84.9385Z" fill="#6C6C6C"/>
<path d="M54.3926 84.5325C54.5526 84.0502 54.69 83.5575 54.8813 83.0873C55.0031 82.7855 55.2901 82.5703 55.5962 82.7352C55.7736 82.8306 55.9371 83.1602 55.9197 83.3684C55.8728 83.9427 55.7528 84.5152 55.6084 85.0756C55.5284 85.3879 55.3771 85.7522 54.9474 85.6724C54.5439 85.5978 54.5091 85.2282 54.4795 84.8934C54.4691 84.7841 54.4795 84.6731 54.4795 84.5638C54.4517 84.5534 54.4221 84.5429 54.3943 84.5325H54.3926Z" fill="#6C6C6C"/>
<path d="M66.4537 90.1398C66.4381 90.1745 66.4085 90.3966 66.2937 90.4556C65.7267 90.7453 65.151 91.0368 64.5491 91.2311C64.3491 91.2953 64.0552 91.0767 63.8047 90.9882C63.8934 90.7557 63.923 90.466 64.083 90.3029C64.5648 89.8119 65.1597 89.4875 65.8589 89.4285C66.3024 89.3903 66.4572 89.5655 66.452 90.1398H66.4537Z" fill="#6C6C6C"/>
<path d="M44.8956 91.2154C45.7914 91.2189 46.9411 91.9753 47.2142 92.6346C47.3725 93.0146 47.2994 93.1534 46.8976 93.1135C45.9879 93.0232 45.2539 92.5166 44.5321 92.0152C44.4329 91.9459 44.3912 91.6232 44.466 91.5156C44.5825 91.3473 44.8208 91.264 44.8939 91.2172L44.8956 91.2154Z" fill="#6C6C6C"/>
<path d="M49.7852 86.8157C49.7592 87.2407 49.5609 87.3778 49.1626 87.2477C48.5781 87.0568 47.6789 85.8181 47.6719 85.1953C47.6667 84.7442 48.1468 84.4441 48.4859 84.7563C49.0912 85.3167 49.5957 85.9812 49.787 86.8157H49.7852Z" fill="#6C6C6C"/>
<path d="M65.3412 92.7318C65.8282 92.8862 66.3222 93.018 66.7971 93.2037C67.1171 93.3268 67.1067 93.5194 66.8023 93.6929C66.2074 94.0312 65.5656 94.0503 64.9203 93.9445C64.5898 93.8907 64.3915 93.6652 64.4385 93.3008C64.4855 92.9313 64.7203 92.8012 65.0716 92.8324C65.1499 92.8393 65.2299 92.8324 65.3082 92.8324C65.3186 92.7977 65.3308 92.7647 65.3412 92.73V92.7318Z" fill="#6C6C6C"/>
<path d="M23.458 48.1981C23.004 48.205 22.6526 47.8702 22.637 47.4156C22.6248 47.0218 23.0492 46.5933 23.4614 46.5846C24.0146 46.5725 24.3502 46.8674 24.3624 47.374C24.3763 47.891 24.0476 48.1877 23.4562 48.1981H23.458Z" fill="#6C6C6C"/>
<path d="M92.4275 47.8806C92.4293 48.3733 92.1423 48.6804 91.6709 48.6908C91.2082 48.7012 90.8099 48.3386 90.8029 47.8997C90.7943 47.3688 91.0517 47.1467 91.6813 47.1467C92.1857 47.1467 92.424 47.3809 92.4275 47.8806Z" fill="#6C6C6C"/>
<path d="M93.2794 79.6938C93.0255 79.6938 92.7715 79.6973 92.5176 79.699C92.7715 79.699 93.0255 79.6956 93.2794 79.6938Z" fill="#6C6C6C"/>
<path d="M91.199 23.5986C91.1659 23.472 91.1346 23.3453 91.1016 23.2169C91.1346 23.3436 91.1659 23.4702 91.199 23.5986Z" fill="#EBECED"/>
<path d="M93.0069 71.6507C92.9773 71.5501 92.9478 71.4495 92.9199 71.3489C92.9495 71.4495 92.9791 71.5501 93.0069 71.6507Z" fill="#EBECED"/>
<path d="M60.2087 13.0815C60.1391 13.0538 60.0696 13.026 60 13C60.0696 13.0278 60.1391 13.0555 60.2087 13.0815Z" fill="#6C6C6C"/>
<path d="M63.2188 80.1552C63.255 80.1518 63.2912 80.1484 63.3257 80.1467C63.2895 80.1501 63.2532 80.1535 63.2188 80.1552Z" fill="#EBECED"/>
<path d="M61.0625 26.1455C61.0712 26.1802 61.0816 26.2149 61.0903 26.2513C61.0816 26.2166 61.0712 26.1819 61.0625 26.1455Z" fill="#6C6C6C"/>
<path d="M79.7782 32.4519L79.7933 32.4586C79.7933 32.4586 79.7715 32.467 79.7715 32.4686C79.7715 32.4703 79.7782 32.4536 79.7782 32.4536V32.4519Z" fill="#6C6C6C"/>
<path d="M116.372 79.6418C116.324 79.6349 116.273 79.6279 116.225 79.6192C116.273 79.6262 116.324 79.6331 116.372 79.6418Z" fill="#6C6C6C"/>
</g>
<defs>
<clipPath id="clip0_2848_20779">
<rect width="117" height="81" fill="white" transform="translate(0 13)"/>
</clipPath>
</defs>
</svg>
