<svg width="230" height="140" viewBox="0 0 230 140" fill="none" xmlns="http://www.w3.org/2000/svg">
<mask id="mask0_2565_20895" style="mask-type:alpha" maskUnits="userSpaceOnUse" x="0" y="0" width="230" height="130">
<rect width="230" height="129.078" fill="#D9D9D9"/>
</mask>
<g mask="url(#mask0_2565_20895)">
</g>
<g clip-path="url(#clip0_2565_20895)">
<path d="M121.238 139.875C120.71 139.802 120.172 139.771 119.653 139.651C116.5 138.916 113.635 137.639 111.536 135.044C110.348 133.574 109.216 132.06 108.099 130.532C106.661 128.567 105.257 126.578 103.853 124.586C102.853 123.165 102.014 121.656 101.471 119.993C101.447 119.922 101.394 119.859 101.293 119.691C100.8 120.557 100.277 121.327 99.8996 122.162C98.021 126.316 95.2019 129.78 92.0804 133.023C91.3696 133.76 90.5837 134.424 89.8596 135.15C88.4777 136.536 86.864 137.568 85.1001 138.381C83.1928 139.258 81.2281 139.384 79.2081 138.863C77.2787 138.363 75.3913 137.784 73.7687 136.547C72.3603 135.472 71.4176 134.065 70.9673 132.375C70.7333 131.496 70.8106 130.61 71.2477 129.695C71.7576 128.632 71.9055 127.402 72.3205 126.283C73.5303 123.01 75.0954 119.93 77.1882 117.115C78.9013 114.813 80.4333 112.373 82.1089 110.039C82.8683 108.982 83.7381 107.994 84.6343 107.051C85.8882 105.732 86.8198 105.65 88.6984 106.522C89.0649 106.693 89.4181 106.897 89.7779 107.086C89.8331 107.028 89.8905 106.971 89.9457 106.913C89.683 106.569 89.491 106.089 89.1444 105.907C88.3607 105.492 87.5218 105.137 86.6653 104.919C85.7845 104.697 85.0383 105.203 84.3628 105.723C82.5747 107.104 81.2325 108.889 79.9521 110.725C78.5039 112.801 77.0734 114.893 75.6186 116.966C73.7179 119.675 72.3779 122.639 71.5722 125.85C71.4949 126.158 71.4243 126.316 71.06 126.36C70.2741 126.458 69.5015 126.673 68.7156 126.776C68.4463 126.811 68.146 126.571 67.8679 126.587C66.2409 126.678 64.6184 126.862 62.9936 126.913C60.2584 127 57.5188 127.013 54.7837 127.053C54.6645 127.053 54.5452 127.026 54.4282 126.998C54.0353 126.895 53.6092 126.802 53.6026 126.276C53.596 125.752 54.0066 125.61 54.4062 125.534C55.0618 125.41 55.7241 125.286 56.3864 125.246C57.68 125.17 58.978 125.175 60.2717 125.11C62.3953 125.006 64.519 124.864 66.6449 124.757C67.3248 124.724 68.007 124.753 68.6935 124.753C69.124 123.363 69.5302 121.98 69.9783 120.61C72.6715 112.386 77.0425 105.197 83.1442 99.0821C84.2966 97.9275 85.4953 96.8285 86.9655 96.0803C87.0626 96.0314 87.162 95.8916 87.1752 95.785C87.2348 95.2721 87.2635 94.7548 87.3077 94.2397C87.354 93.6957 87.2481 93.2716 86.7712 92.8809C85.7933 92.0816 84.8617 91.2134 83.9654 90.3231C81.2744 87.6477 79.3715 84.4838 78.4024 80.8004C78.0757 79.5615 77.718 78.2293 77.8439 76.9882C78.2633 72.8229 79.3075 68.8731 82.8307 66.1155C83.0515 65.9423 83.2723 65.7314 83.5283 65.6581C83.7601 65.5915 84.1001 65.6048 84.2701 65.7403C84.3782 65.8269 84.3473 66.2487 84.2348 66.4308C83.9279 66.9215 83.546 67.3655 83.1928 67.8273C82.0404 69.1351 81.3009 70.656 80.9345 72.3567C80.7027 73.4335 80.5857 74.537 80.3141 75.6027C80.0382 76.6862 80.3627 77.6831 80.5459 78.7133C80.9985 81.2622 82.3451 83.3825 83.6674 85.5296C84.833 87.4212 86.5814 88.7023 88.204 90.1721C88.3187 89.9146 88.385 89.697 88.5042 89.5127C89.1024 88.5869 89.6058 87.57 90.3431 86.7729C91.8288 85.1676 94.4447 84.4239 96.6876 86.6619C97.9636 87.9341 98.9393 89.3906 99.4603 91.1268C100.039 93.054 100.588 94.9923 101.165 96.9218C101.226 97.1327 101.348 97.4346 101.507 97.4857C102.048 97.6567 102.619 97.7366 103.207 97.8543C103.293 97.4946 103.368 97.2259 103.425 96.9528C104.123 93.6424 105.31 90.5496 107.379 87.8386C108.796 85.9825 110.5 84.5504 112.79 83.9199C114.827 83.3603 116.666 83.72 118.123 85.2853C118.794 86.0069 119.37 86.8728 119.777 87.772C120.172 88.6468 120.295 89.6481 120.54 90.5918C120.531 90.6095 120.509 90.6295 120.514 90.6451C120.523 90.6806 120.545 90.7139 120.56 90.7494C120.62 91.471 120.679 92.1948 120.739 92.9164C120.739 93.1584 120.739 93.4004 120.739 93.6424C120.719 94.0021 120.699 94.3618 120.679 94.7215C120.675 94.7748 120.671 94.8258 120.666 94.8791C120.26 97.0861 119.854 99.2952 119.443 101.533C119.556 101.54 119.752 101.567 119.949 101.564C121.794 101.551 123.64 101.571 125.483 101.504C126.567 101.464 127.677 101.409 128.726 101.149C132.243 100.279 135.539 98.8334 138.766 97.186C142.333 95.3631 144.667 92.4102 146.446 88.951C146.881 88.1051 146.969 87.0793 147.217 86.1357C147.263 85.5806 147.331 85.0256 147.347 84.4705C147.371 83.5002 147.413 82.5255 147.356 81.5597C147.289 80.4318 147.122 79.3106 147.002 78.1849C146.952 77.712 146.892 77.2391 146.877 76.7639C146.843 75.7581 147.62 75.2941 148.563 75.6338C149.281 75.8936 149.576 76.3265 149.722 77.0592C150.117 79.0242 150.47 80.9891 150.345 83.0029C150.307 83.6046 150.025 84.1974 150.013 84.7969C149.978 87.0549 149.409 89.1486 148.285 91.0958C146.082 94.9124 143.238 98.0741 139.177 99.9458C136.709 101.083 134.282 102.319 131.671 103.112C131.618 103.127 131.574 103.176 131.556 103.187C139.605 109.064 144.941 116.866 147.958 126.458C148.066 126.458 148.281 126.458 148.497 126.458C151.305 126.458 154.113 126.451 156.919 126.458C157.329 126.458 157.751 126.498 158.148 126.593C158.305 126.631 158.515 126.878 158.515 127.026C158.515 127.24 158.389 127.579 158.232 127.641C157.835 127.795 157.393 127.852 156.963 127.892C156.25 127.961 155.535 127.986 154.819 128.028C154.775 128.052 154.731 128.077 154.687 128.099C154.488 128.112 154.287 128.134 154.089 128.137C151.532 128.183 148.974 128.256 146.417 128.261C144.402 128.263 142.384 128.199 140.369 128.128C139.243 128.088 138.121 127.981 136.998 127.897C136.605 127.868 136.402 127.672 136.265 127.264C135.516 125.019 134.797 122.761 133.929 120.563C132.889 117.932 131.313 115.636 129.251 113.687C127.6 112.126 125.969 110.545 124.32 108.984C124.015 108.696 123.664 108.456 123.333 108.194C122.231 107.324 120.995 107.104 119.655 107.455C118.79 107.681 117.933 107.937 117.072 108.183C116.977 108.21 116.887 108.256 116.794 108.292C116.829 108.385 116.863 108.478 116.898 108.574C117.286 108.583 117.679 108.631 118.063 108.589C118.657 108.527 119.242 108.383 119.836 108.307C120.838 108.181 121.763 108.387 122.494 109.124C124.419 111.065 126.313 113.034 128.24 114.975C130.048 116.795 131.446 118.9 132.404 121.269C133.397 123.72 134.265 126.225 135.183 128.707C135.287 128.989 135.324 129.3 135.457 129.566C136.19 131.036 135.896 132.431 135.256 133.845C134.912 134.604 134.739 135.441 134.455 136.229C133.739 138.212 132.404 139.513 130.307 139.937C130.095 139.979 129.876 139.977 129.66 139.997C129.618 139.997 129.576 139.995 129.534 139.993C126.887 139.955 124.242 139.92 121.596 139.882C121.474 139.88 121.355 139.875 121.233 139.873L121.238 139.875ZM99.8246 106.713C99.7914 106.587 99.7561 106.458 99.723 106.331C99.6347 105.199 99.6082 104.058 99.4449 102.936C99.1976 101.231 98.9283 99.5217 98.5353 97.8454C98.021 95.654 97.4117 93.4826 96.7759 91.3222C96.4249 90.1277 95.7295 89.102 94.8266 88.2405C94.5904 88.014 94.288 87.812 93.9789 87.7187C92.8774 87.3901 92.0451 87.9585 91.491 88.7867C90.6543 90.0389 90.1157 91.4599 90.098 92.9897C90.076 94.8347 90.1267 96.6842 90.2172 98.527C90.2636 99.4862 90.3674 100.463 90.6212 101.384C91.14 103.261 91.7603 105.11 92.3807 106.957C92.4822 107.255 92.7604 107.575 93.0407 107.717C94.6854 108.549 96.3543 109.333 98.0166 110.135C98.5729 110.403 99.1314 110.672 99.6877 110.943C99.7318 110.905 99.7738 110.869 99.8179 110.832C99.8179 109.46 99.8224 108.085 99.8224 106.713H99.8246ZM103.204 112.506C103.705 112.308 103.997 112.186 104.293 112.08C106.339 111.334 108.383 110.583 110.436 109.853C111.379 109.517 112.344 109.249 113.28 108.896C113.542 108.796 113.823 108.545 113.938 108.292C114.247 107.608 114.47 106.884 114.73 106.178C115.271 104.717 115.851 103.267 116.346 101.791C116.631 100.94 116.807 100.052 116.982 99.1687C117.335 97.4013 117.796 95.6384 117.94 93.8533C118.05 92.4679 117.81 91.038 117.609 89.6459C117.414 88.3027 116.768 87.1548 115.529 86.5154C115.032 86.2578 114.364 86.0891 113.834 86.1934C112.361 86.4798 111.081 87.217 110.024 88.3093C108.438 89.9501 107.22 91.8351 106.458 93.9888C105.937 95.463 105.538 96.9839 105.096 98.487C104.271 101.316 103.741 104.2 103.544 107.142C103.427 108.873 103.324 110.605 103.202 112.51L103.204 112.506Z" fill="#1D1D1D"/>
<path d="M144.892 32.6362C144.901 35.5403 144.909 38.4444 144.914 41.3507C144.914 41.5506 144.907 41.7659 144.837 41.948C144.528 42.7495 144.552 43.4889 145.185 44.1438C146.706 43.762 148.249 43.349 149.806 42.9915C150.943 42.7318 152.097 42.5452 153.245 42.3254C153.289 42.3299 153.336 42.3321 153.38 42.3365C154.777 42.3365 156.177 42.3365 157.574 42.3343C157.632 42.3521 157.687 42.3676 157.744 42.3854C157.848 42.4076 157.952 42.432 158.055 42.4542C158.111 42.4742 158.166 42.4942 158.221 42.5142C160.031 43.0315 161.53 44.0439 162.731 45.4804C164.027 47.0324 165.144 48.7287 165.804 50.6448C166.689 53.2092 166.901 55.8358 165.824 58.4246C165.369 59.5192 164.866 60.596 164.347 61.664C163.362 63.6889 161.828 65.2253 160.047 66.553C159.179 67.1991 158.376 67.934 157.574 68.6667C156.307 69.8257 154.927 70.7116 153.203 71.0646C151.413 71.4287 149.651 71.9394 147.876 72.3857C147.839 72.3946 147.801 72.4412 147.77 72.4367C147.43 72.3812 147.093 72.3191 146.755 72.2591C146.872 71.9949 146.943 71.6952 147.113 71.4731C148.066 70.2298 149.331 69.3683 150.843 69.0975C153.243 68.6712 155.203 67.581 156.806 65.7604C157.135 65.3852 157.521 65.0366 157.938 64.7702C160.543 63.1161 161.996 60.6271 163.106 57.8318C164.056 55.4361 163.897 53.1071 162.875 50.8357C162.325 49.6146 161.625 48.4356 160.837 47.3521C159.457 45.4605 157.625 44.4014 155.179 44.5257C153.543 44.6079 151.934 44.7788 150.331 45.1074C148.267 45.5315 146.203 45.9911 144.117 46.2664C143.115 46.3974 142.057 46.1732 141.035 46.0289C140.814 45.9978 140.519 45.6403 140.474 45.3916C140.399 44.9742 140.783 45.0275 141.082 44.9942C141.671 44.932 142.256 44.821 142.958 44.7122C142.15 44.3859 141.567 43.9795 141.536 43.1092C141.536 43.0493 141.441 42.9849 141.382 42.9338C140.596 42.2788 139.81 41.6238 138.892 40.8623C138.792 41.0244 138.722 41.202 138.6 41.3285C136.092 43.9462 133.768 46.7105 131.792 49.7611C130.808 51.2798 129.819 52.7962 128.812 54.2994C128.49 54.7812 128.147 55.2652 127.739 55.6737C126.958 56.4575 126.028 56.4197 125.244 55.6315C124.445 54.8256 124.395 53.8486 124.542 52.7874C125.392 46.6705 128.286 41.5062 131.905 36.6726C131.938 36.6282 131.949 36.5661 131.989 36.4706C130.516 35.9399 129.059 35.4004 127.591 34.9009C127.459 34.8565 127.18 35.003 127.081 35.1407C125.556 37.261 123.971 39.3458 122.551 41.5372C120.233 45.1185 118.035 48.7753 116.352 52.7163C115.831 53.9375 115.308 55.1586 114.739 56.3575C114.509 56.8438 114.2 57.3078 113.849 57.7141C112.917 58.7954 111.593 58.8331 110.577 57.8185C109.657 56.8993 109.242 55.6937 108.986 54.4725C108.769 53.4446 108.745 52.3655 108.725 51.3064C108.686 49.2038 109.246 47.1878 109.745 45.1718C110.838 40.7668 112.509 36.5994 114.97 32.7738C115.057 32.6428 115.132 32.503 115.264 32.2787C114.566 32.2787 113.942 32.2632 113.317 32.2832C112.898 32.2965 112.476 32.3298 112.063 32.4053C111.445 32.5163 110.864 32.4541 110.361 33.1602C108.672 35.5314 107.206 38.0137 106.078 40.6913C104.714 43.9329 103.425 47.2056 102.085 50.4561C101.888 50.9356 101.619 51.3975 101.314 51.8149C100.897 52.3855 100.169 52.4632 99.7604 51.937C98.8221 50.7247 97.9369 49.4436 98.1356 47.7917C98.3872 45.7047 98.7427 43.6376 99.2769 41.595C100.005 38.8063 101.264 36.2486 102.44 33.6508C102.555 33.3977 102.716 33.1691 102.86 32.9204C101.44 31.7281 100.149 30.4714 100.144 28.2956C100.325 28.4377 100.44 28.4843 100.484 28.5687C101.248 30.0318 102.465 31.0531 103.851 31.8302C104.361 32.1166 105.087 32.0145 105.712 32.09C105.809 31.697 105.889 31.3817 105.972 31.0487C106.418 31.4261 108.218 31.5682 108.666 31.2774C108.727 31.2374 108.783 31.1664 108.816 31.0975C110.836 26.7969 113.655 23.0357 116.659 19.4078C118.697 16.9433 120.677 14.41 122.918 12.1409C125.169 9.85844 127.69 7.84021 130.136 5.7576C131.236 4.82287 132.432 4.00137 133.602 3.15322C134.92 2.19851 136.443 1.91653 138 2.14966C138.66 2.24735 139.402 2.647 139.847 3.14434C140.49 3.85927 141.037 4.73628 141.375 5.6377C142.11 7.59376 142.788 9.58534 143.3 11.6102C143.651 13.0046 143.684 14.4788 143.859 15.9176C143.901 16.0397 143.94 16.1618 143.982 16.2839C144.02 18.1134 144.018 19.9429 144.106 21.7702C144.168 23.0713 144.353 24.3679 144.472 25.6668C144.556 26.5993 144.642 27.534 144.686 28.4687C144.753 29.8076 144.781 31.1508 144.828 32.4896C144.848 32.5363 144.867 32.5829 144.887 32.6317L144.892 32.6362ZM114.661 24.3612C115.602 24.3413 116.542 24.2946 117.483 24.308C119.032 24.3324 120.414 23.9705 121.461 22.7271C122.695 21.2617 122.225 18.8838 120.531 17.978C120.22 17.8114 119.995 17.8181 119.752 18.109C118.048 20.1694 116.333 22.2187 114.622 24.2724L114.555 24.3302C114.591 24.3413 114.628 24.3501 114.664 24.3612H114.661ZM142.154 40.3627V30.9554C141.79 31.102 141.602 31.2041 141.399 31.253C140.463 31.4772 139.516 31.8835 138.587 31.8524C137.3 31.808 136.042 31.384 135.028 30.4714C133.967 29.5167 133.278 28.3821 133.397 26.8946C133.512 25.4647 133.986 24.157 134.876 23.0246C136.324 21.1796 139.068 20.6645 141.104 21.8435C141.146 21.8701 141.187 21.8945 141.229 21.9212C141.28 21.748 141.375 21.5748 141.375 21.4016C141.384 19.8474 141.457 18.2888 141.353 16.7435C141.232 14.9562 141.053 13.16 140.704 11.406C140.353 9.63419 139.786 7.90238 139.269 6.16613C139.117 5.65325 138.841 5.17367 138.587 4.69631C138.307 4.16789 137.821 3.96584 137.245 3.92144C136.28 3.84817 135.406 4.13236 134.642 4.68077C133.223 5.69765 131.843 6.76782 130.45 7.82245C130.404 7.85797 130.401 7.94901 130.381 8.01117C130.927 8.0689 131.441 8.09998 131.949 8.17991C133.209 8.3753 134.205 8.99697 134.578 10.2581C134.77 10.9108 134.673 11.648 134.722 12.3451C134.797 13.4175 134.56 14.4344 134.128 15.3958C133.616 16.537 132.854 17.4606 131.58 17.7781C129.119 18.3887 125.589 16.3239 126.097 12.8669C126.176 12.3207 126.306 11.7812 126.412 11.2372C126.359 11.195 126.306 11.1529 126.251 11.1107C124.417 13.0423 122.582 14.9739 120.723 16.9344C122.582 17.6871 123.759 19.3168 123.779 21.0641C123.801 22.9203 122.132 25.0562 120.156 25.5491C118.028 26.0797 115.891 26.0065 113.721 25.4114C112.471 27.2543 111.193 29.137 109.873 31.0842C110.125 31.062 110.284 31.0531 110.441 31.0309C111.787 30.84 113.129 30.5292 114.483 30.4781C116.708 30.3915 118.946 30.356 121.143 30.9044C121.293 30.9421 121.562 30.8289 121.655 30.7001C122.545 29.4545 123.723 28.5664 125.077 27.9159C126.584 27.1921 128.097 27.1854 129.54 28.1046C131.092 29.0949 132.251 30.4714 133.284 31.9768C133.878 32.8405 133.73 33.8218 133.77 34.6633C134.64 35.1184 135.503 35.4448 136.22 35.971C138.163 37.392 140.042 38.8996 141.947 40.3738C142.004 40.4205 142.062 40.4693 142.119 40.5159L142.157 40.3672L142.154 40.3627ZM141.931 29.3835C141.931 29.2836 141.94 29.1637 141.931 29.0438C141.799 27.4829 141.658 25.9199 141.536 24.359C141.459 23.3799 140.865 22.8981 139.989 22.6983C137.496 22.1299 135.565 23.704 135.207 26.5926C135.008 28.1845 136.371 29.288 137.516 29.7299C139.04 30.3182 140.477 30.0318 141.934 29.3835H141.931ZM128.386 9.78295C127.865 11.1684 127.134 12.5938 127.724 14.239C128.112 15.3203 129.43 16.1684 130.662 16.164C131.585 16.1596 132.446 15.4713 132.763 14.2324C133.011 13.2643 133.066 12.2386 133.141 11.2328C133.194 10.5156 132.827 9.93393 132.123 9.79183C131.342 9.63419 130.523 9.64307 129.719 9.62753C129.313 9.62087 128.907 9.71856 128.388 9.78295H128.386ZM132.238 34.1859C132.002 33.5487 131.918 32.9759 131.613 32.574C130.838 31.5527 130.035 30.5336 129.11 29.6566C128.143 28.7418 126.971 28.2623 125.602 28.8795C124.381 29.4301 123.225 30.0651 122.388 31.0887C125.611 32.1011 128.812 33.1091 132.238 34.1859Z" fill="#1D1D1D"/>
<path d="M96.4605 29.9139C96.2111 30.3646 95.8579 30.4423 95.476 30.238C94.8777 29.9183 94.2971 29.5653 93.7276 29.1967C93.0388 28.7504 92.3501 28.2997 91.6944 27.8068C90.8423 27.1652 89.9063 27.214 88.9394 27.365C86.7539 27.7047 84.9084 28.706 83.4602 30.3668C81.4999 32.6181 79.714 35.0116 78.7537 37.8824C78.3232 39.1657 78.1841 40.549 77.9281 41.89C77.8243 42.4406 78.0716 42.9002 78.4711 43.2288C79.6632 44.2102 80.8222 45.247 82.107 46.0885C83.2704 46.8501 84.5817 47.3852 85.8642 48.0401C86.1821 47.434 86.5044 46.819 86.8466 46.1685C83.8289 45.3869 82.1577 43.3509 81.3917 40.4646C81.1533 39.5632 81.2217 38.6551 81.5109 37.7736C81.9149 36.5414 82.6147 35.4934 83.5529 34.612C84.8112 33.4285 86.0607 32.2318 87.3544 31.0884C88.5972 29.9871 89.9019 29.8317 91.3103 30.9263C92.1757 31.599 93.1757 32.0964 94.1073 32.6848C94.9991 33.2487 95.8292 33.8571 96.1184 34.9761C96.2332 35.4246 97.5555 35.9796 97.9705 35.7776C97.9529 36.044 98.0169 36.3371 97.9021 36.5147C97.7696 36.7234 97.4606 36.9832 97.2641 36.9566C96.4495 36.8455 95.9705 37.2852 95.4958 37.8336C94.0742 39.4721 92.5819 41.053 91.2198 42.7404C90.4582 43.6862 89.829 44.7608 89.2661 45.8421C87.4272 49.3834 86.1998 53.1445 85.4801 57.07C85.2594 58.2756 85.0695 59.5034 85.0452 60.7245C85.0276 61.6149 85.2748 62.5185 85.4625 63.4044C85.617 64.1282 85.4271 64.7987 84.9084 65.0319C84.3587 65.2805 83.6677 65.0696 83.3697 64.3547C82.9812 63.4222 82.5948 62.4297 82.5176 61.4395C82.2703 58.2312 83.2704 55.2249 84.2306 52.2254C84.5066 51.3639 84.8245 50.518 85.1291 49.6454C84.1975 49.4633 83.2615 49.3457 82.3631 49.0948C79.7625 48.3665 77.8022 46.6991 76.226 44.5721C75.5571 43.6684 75.3607 42.6427 75.6918 41.4593C76.6565 38.0023 77.6124 34.5609 79.5948 31.5058C80.6147 29.9338 81.8067 28.5506 83.2991 27.4183C85.3101 25.8907 87.6104 25.3401 90.0719 25.3756C90.8467 25.3867 91.5973 25.6154 92.2066 26.1771C93.4031 27.2784 94.6106 28.3663 95.8204 29.4543C96.0058 29.6208 96.2265 29.7473 96.465 29.9183L96.4605 29.9139Z" fill="#1D1D1D"/>
<path d="M153.621 46.2268C156.252 45.7805 157.789 47.2725 159.056 49.3263C160.307 51.3556 160.747 53.5581 160.588 55.896C160.522 56.8641 160.1 57.7633 159.424 58.436C157.906 59.9525 156.349 61.4356 154.738 62.8521C152.972 64.4041 150.841 65.3078 148.605 65.9339C147.749 66.1737 146.848 66.3158 145.961 66.3757C145.04 66.4401 144.649 65.7163 145.066 64.9015C145.131 64.7793 145.119 64.564 145.053 64.4352C144.338 63.012 143.963 61.5 143.742 59.9281C143.336 57.0395 142.779 54.1842 141.609 51.4866C141.336 50.8538 141.398 50.5119 141.987 50.15C142.634 49.7526 143.316 49.404 144.013 49.1087C145.671 48.4071 147.347 47.7477 149.018 47.0749C150.493 46.4821 151.989 45.9981 153.625 46.2268H153.621Z" fill="#1D1D1D"/>
<path d="M111.116 75.8514C111.856 77.0548 111.586 77.7453 110.229 78.1827C109.566 78.3981 108.92 78.6623 108.257 78.8777C107.919 78.9865 107.562 79.0908 107.213 79.0975C105.955 79.1197 104.69 79.1641 103.438 79.062C102.893 79.0176 102.222 78.7755 101.871 78.3848C101.034 77.45 100.314 76.3999 99.6235 75.3452C99.0407 74.4527 99.363 73.5535 99.8155 72.6987C100.27 72.5166 100.712 72.2835 101.182 72.1614C102.745 71.7528 104.321 71.7773 105.875 72.2058C106.35 72.3368 106.82 72.5432 107.24 72.8008C108.036 73.2893 108.825 73.8044 109.564 74.3772C110.125 74.8124 110.602 75.3563 111.116 75.8537V75.8514Z" fill="#1D1D1D"/>
<path d="M66.3007 52.6921C66.186 52.9785 66.0645 53.4958 65.7908 53.911C65.3934 54.5127 64.9343 54.5682 64.3515 54.1486C63.815 53.7622 63.2918 53.3493 62.8172 52.8919C61.5434 51.6685 60.2631 50.4496 59.0489 49.1663C57.5985 47.6343 57.7001 46.6174 59.4109 45.3585C60.3602 44.6591 61.3713 44.0397 62.3823 43.4291C63.1064 42.9917 63.8283 43.247 64.0711 44.0397C64.7577 46.2644 65.4155 48.498 66.0469 50.7382C66.2014 51.2866 66.2014 51.8794 66.303 52.6898L66.3007 52.6921ZM63.868 51.6019C63.8283 49.4927 62.9364 47.6298 62.4066 45.5317C61.5236 46.1667 60.7267 46.7395 59.8282 47.3878C61.2454 48.8665 62.5567 50.2342 63.868 51.6019Z" fill="#1D1D1D"/>
<path d="M58.4399 61.5681C58.983 62.494 58.7423 63.0046 57.5767 63.1512C55.612 63.3976 53.6826 63.9394 51.6759 63.8683C50.2653 63.8195 49.5876 63.2133 49.6472 61.8057C49.7002 60.5779 49.8745 59.3567 49.9871 58.1311C50.0379 57.5761 50.0776 57.0188 50.1152 56.4637C50.1461 55.9886 50.1924 55.5134 50.7178 55.3158C51.2057 55.1316 51.4706 55.4935 51.7995 55.771C52.3161 56.2106 52.8724 56.6125 53.4442 56.9766C54.8968 57.9047 56.3736 58.7972 57.8306 59.7186C58.133 59.9096 58.4311 60.136 58.6651 60.4025C58.8417 60.6045 58.9984 60.902 58.9962 61.1551C58.9962 61.2928 58.643 61.426 58.4421 61.5681H58.4399ZM51.7223 57.6138C51.6561 57.8225 51.5832 57.9691 51.5677 58.1223C51.4397 59.3279 51.3139 60.5313 51.2013 61.7391C51.1461 62.3363 51.347 62.4962 51.9165 62.3541C52.0115 62.3297 52.1064 62.3075 52.2035 62.2941C54.1064 62.041 56.0094 61.7901 57.9123 61.5393C57.9211 61.4682 57.9299 61.3949 57.9388 61.3239C56.0226 59.8496 53.8658 58.7772 51.7223 57.6138Z" fill="#1D1D1D"/>
<path d="M99.3366 3.70375C99.2307 4.65625 99.107 5.82189 98.9702 6.98531C98.8201 8.26419 98.6633 9.54084 98.4955 10.8175C98.4624 11.0728 98.3852 11.3304 98.2924 11.5724C98.0386 12.2429 97.4293 12.4427 96.8619 11.9854C96.4778 11.6745 96.0761 11.306 95.8685 10.873C94.8707 8.79483 93.9193 6.69224 92.9921 4.58076C92.7426 4.01237 92.9634 3.48395 93.5418 3.20863C95.0186 2.50703 96.586 2.09628 98.213 1.9897C98.9922 1.93864 99.3344 2.46484 99.3366 3.70375ZM96.7714 9.65852C96.8288 9.62965 96.8862 9.59857 96.9458 9.56971C97.2196 7.58256 97.4911 5.59542 97.7759 3.52613C96.6434 3.83919 95.6103 4.12338 94.4645 4.43866C95.2593 6.23708 96.0142 7.94891 96.7714 9.66074V9.65852Z" fill="#1D1D1D"/>
<path d="M173.495 85.9674C173.451 86.4847 173.438 87.093 173.345 87.6859C173.127 89.0891 172.158 89.6308 170.78 89.3622C169.182 89.0513 167.557 88.867 165.937 88.6939C165.126 88.6073 164.294 88.6717 163.639 88.0611C163.519 87.9501 163.369 87.8146 163.349 87.6725C163.336 87.5793 163.51 87.4172 163.634 87.355C165.12 86.6135 166.605 85.8741 168.102 85.157C169.113 84.6729 170.14 84.2267 171.162 83.7693C171.38 83.6716 171.603 83.545 171.833 83.5162C172.875 83.383 173.199 83.3608 173.4 84.4953C173.48 84.9483 173.46 85.4167 173.491 85.9651L173.495 85.9674ZM172.045 84.7151C170.228 85.5166 168.515 86.2693 166.753 87.0442C168.248 87.355 169.672 87.6659 171.102 87.939C171.504 88.0145 171.871 87.8901 171.901 87.3772C171.952 86.5402 171.992 85.7031 172.043 84.7151H172.045Z" fill="#1D1D1D"/>
<path d="M166.683 100.226C167.897 100.09 169.107 99.8904 170.323 99.8326C171.941 99.7549 173.566 99.7771 175.189 99.7927C175.376 99.7927 175.659 99.9969 175.721 100.17C175.782 100.35 175.694 100.661 175.56 100.818C175.193 101.245 174.727 101.584 174.376 102.02C173.646 102.921 172.937 103.842 172.272 104.795C171.853 105.394 171.648 105.541 170.992 105.228C169.151 104.346 167.316 103.454 165.5 102.526C164.595 102.064 164.575 101.582 165.356 100.943C165.387 100.918 165.433 100.905 165.455 100.874C165.794 100.406 166.205 100.191 166.687 100.228L166.683 100.226ZM173.952 100.783C173.35 100.783 172.723 100.712 172.118 100.796C170.328 101.047 168.539 101.218 166.729 101.149C166.61 101.145 166.489 101.191 166.367 101.214L166.334 101.347C167.957 102.293 169.581 103.239 171.091 104.118C172.12 102.919 173.027 101.862 173.955 100.783H173.952Z" fill="#1D1D1D"/>
<path d="M110.638 13.5332C110.443 13.8907 110.302 14.3592 109.997 14.6634C109.536 15.1252 108.973 15.4893 108.432 15.8667C107.152 16.7593 105.856 17.6296 104.571 18.5177C104.43 18.6154 104.353 18.8064 104.209 18.8996C104.01 19.0284 103.732 19.2305 103.569 19.1727C103.359 19.0995 103.189 18.8175 103.081 18.5866C103.019 18.4534 103.081 18.2291 103.15 18.0759C104.194 15.7535 105.229 13.4289 106.311 11.1243C106.796 10.0874 107.406 9.92531 108.317 10.6269C109.037 11.182 109.673 11.8547 110.291 12.5275C110.485 12.7406 110.503 13.1181 110.638 13.5332ZM105.384 15.758L105.498 15.8889C106.618 15.2118 107.75 14.5546 108.849 13.8441C109.236 13.5954 109.196 13.1469 108.909 12.8427C108.452 12.3543 107.929 11.928 107.351 11.3996C106.657 12.936 106.019 14.3481 105.381 15.758H105.384Z" fill="#1D1D1D"/>
<path d="M121.596 75.2338C121.39 75.5224 121.185 75.8155 120.977 76.1019C120.492 76.7725 119.878 77.2476 119.013 77.0433C118.231 76.8568 117.988 76.173 117.834 75.4647C117.774 74.1414 118.187 72.9336 118.796 71.7946C119.335 70.7888 119.951 70.5291 120.92 70.7644C121.596 70.9287 122.26 71.7835 122.181 72.6805C122.103 73.542 121.801 74.3834 121.596 75.2316V75.2338Z" fill="#1D1D1D"/>
<path d="M94.6409 69.3019C93.387 70.2744 92.4643 69.8769 91.9698 68.1473C91.9632 66.1491 92.6122 64.4905 94.4136 63.4492C95.1332 63.0318 96.0074 63.2938 96.1619 64.1042C96.3076 64.8636 96.2613 65.6939 96.131 66.4666C95.9478 67.5501 95.3672 68.4782 94.6409 69.3041V69.3019Z" fill="#1D1D1D"/>
<path d="M96.917 29.468C97.0605 29.7189 97.1267 29.8499 97.2062 29.972C97.8685 30.9756 98.5109 31.9947 99.2085 32.9738C99.4204 33.2714 99.7957 33.4468 100.072 33.7043C100.22 33.842 100.442 34.064 100.409 34.1928C100.363 34.3815 100.133 34.6302 99.9546 34.6546C99.6389 34.699 99.2548 34.6812 98.9833 34.5347C97.6698 33.8309 96.5395 31.1399 96.9192 29.4658L96.917 29.468Z" fill="#1D1D1D"/>
<path d="M154.689 128.097C154.734 128.072 154.778 128.048 154.823 128.025C154.778 128.05 154.734 128.075 154.689 128.097Z" fill="#D9D9D9"/>
<path d="M144.892 32.6362C144.872 32.5896 144.852 32.543 144.832 32.4941C144.852 32.5408 144.872 32.5874 144.892 32.6362Z" fill="#D9D9D9"/>
<path d="M129.538 139.995C129.58 139.995 129.623 139.997 129.665 140C129.623 140 129.58 139.997 129.538 139.995Z" fill="#D9D9D9"/>
<path d="M120.541 90.5901C120.548 90.6412 120.554 90.6945 120.561 90.7455C120.545 90.7122 120.523 90.6789 120.514 90.6412C120.51 90.6279 120.532 90.6057 120.541 90.5879V90.5901Z" fill="#D9D9D9"/>
<path d="M141.945 40.369C142.016 40.369 142.087 40.3645 142.155 40.3623C142.142 40.4112 142.131 40.4622 142.118 40.5111C142.06 40.4644 142.003 40.4156 141.945 40.369Z" fill="#D9D9D9"/>
<path d="M114.62 24.2747L114.667 24.306L114.663 24.3619C114.627 24.3507 114.589 24.3418 114.554 24.3306L114.62 24.2725V24.2747Z" fill="#D9D9D9"/>
</g>
<defs>
<clipPath id="clip0_2565_20895">
<rect width="126.096" height="138.014" fill="white" transform="translate(49.6445 1.98535)"/>
</clipPath>
</defs>
</svg>
