<svg width="295" height="142" viewBox="0 0 295 142" fill="none" xmlns="http://www.w3.org/2000/svg">
<mask id="mask0_2848_20753" style="mask-type:alpha" maskUnits="userSpaceOnUse" x="0" y="0" width="295" height="142">
<rect width="295" height="142" fill="#D9D9D9"/>
</mask>
<g mask="url(#mask0_2848_20753)">
</g>
<g clip-path="url(#clip0_2848_20753)">
<path d="M146.145 132.591C148.058 132.591 149.974 132.591 151.887 132.591C151.965 132.591 152.042 132.591 152.122 132.591C153.899 132.305 155.699 132.114 157.449 131.714C160.805 130.949 164.158 130.15 167.465 129.2C169.148 128.716 170.816 128.031 172.34 127.169C175.799 125.211 179.188 123.122 182.558 121.013C183.625 120.347 184.545 119.444 185.547 118.671C185.732 118.529 185.985 118.398 186.209 118.396C189.642 118.365 193.075 118.357 196.511 118.342C196.521 118.4 196.53 118.458 196.541 118.516C196.65 119.554 195.995 120.248 195.369 120.895C194.572 121.716 193.671 122.436 192.815 123.199C192.583 123.405 192.329 123.595 192.125 123.825C190.614 125.54 188.7 126.698 186.673 127.659C184.02 128.916 181.363 130.176 178.633 131.25C176.524 132.08 174.318 132.684 172.125 133.279C170.169 133.81 168.181 134.227 166.192 134.622C164.599 134.938 162.989 135.162 161.381 135.396C159.927 135.609 158.468 135.783 157.008 135.97C156.815 135.994 156.619 135.987 156.423 135.987C154.022 135.987 151.619 136.026 149.219 135.972C147.867 135.942 146.517 135.753 145.165 135.648C144.004 135.557 142.843 135.495 141.682 135.398C139.191 135.192 136.768 134.663 134.758 133.114C133.971 132.507 133.205 132.351 132.298 132.207C129.368 131.744 126.891 130.444 125.12 127.968C125.006 127.809 124.638 127.7 124.443 127.755C123.602 127.988 122.785 128.304 121.953 128.564C121.569 128.684 121.167 128.813 120.771 128.824C119.552 128.858 118.331 128.806 117.112 128.847C116.145 128.88 115.182 129.021 114.214 129.062C113.318 129.101 112.417 129.058 111.52 129.077C109.839 129.112 108.197 128.763 106.703 128.093C104.153 126.95 102.315 125.056 101.586 122.253C101.421 121.615 101.193 120.99 101.077 120.343C100.991 119.861 101.038 119.356 101.025 118.862H103.551C103.671 119.343 103.809 119.859 103.932 120.379C104.355 122.157 105.381 123.444 107.01 124.28C107.872 124.723 108.676 125.284 109.545 125.712C110.637 126.249 111.744 126.784 112.892 127.179C114.214 127.633 115.596 127.515 116.938 127.188C118.009 126.928 119.088 126.653 120.111 126.251C121.992 125.514 123.63 124.426 124.752 122.673C124.922 122.406 125.258 122.247 125.503 122.023C125.683 121.858 125.838 121.667 126.049 121.437C126.285 121.847 126.528 122.275 126.778 122.698C127.73 124.31 128.65 125.944 129.648 127.526C130.712 129.211 132.171 129.395 133.799 129.032C134.136 128.957 134.399 128.542 134.732 128.252C135.041 128.594 135.36 129.047 135.772 129.382C136.69 130.128 137.6 130.921 138.623 131.495C139.36 131.908 140.263 132.106 141.117 132.211C142.703 132.406 144.307 132.464 145.902 132.581C145.982 132.585 146.059 132.589 146.139 132.591H146.145Z" fill="#D9D9D9"/>
<path d="M128.324 81.7273C128.225 81.882 128.128 82.0368 127.965 82.2947C127.832 81.9615 127.737 81.7273 127.643 81.493C127.87 81.5704 128.096 81.6477 128.324 81.7273Z" fill="#D9D9D9"/>
<path d="M149.211 78.4798C149.168 78.6388 149.164 78.8107 149.142 78.9762C148.674 79.4168 148.233 79.894 147.73 80.2873C147.317 80.6097 146.853 80.5258 146.427 80.2206C146.343 80.1605 146.21 80.1691 146.1 80.1454C144.778 78.6152 144.441 76.827 144.819 74.897C145.013 73.8997 146.217 73.1625 146.99 73.1109C147.889 73.0529 149.099 73.9148 149.36 75.2129C149.583 76.3198 149.504 77.4008 149.211 78.4798Z" fill="black"/>
<path d="M207.722 62.2895C207.745 63.7381 207.064 64.8471 206.069 65.8465C204.856 67.0651 203.28 67.5122 201.758 68.1247C200.337 68.6985 198.966 69.4142 197.626 70.16C196.764 70.6393 195.881 71.1637 195.401 72.1051C195.29 72.3265 195.219 72.5672 195.13 72.7993C195.07 72.9712 194.963 73.1389 194.958 73.3108C194.941 73.9513 194.958 74.5918 194.965 75.2322C194.933 75.8426 194.354 76.2488 193.834 76.2854C193.071 76.337 192.637 76.0855 192.387 75.3418C191.947 74.0287 192.018 72.7133 192.518 71.4281C193.09 69.9558 194.215 68.95 195.494 68.1204C196.285 67.6067 197.153 67.2091 197.988 66.7599C198.17 66.6761 198.355 66.5923 198.538 66.5085C198.826 66.3816 199.114 66.2527 199.404 66.1259C199.443 66.1151 199.484 66.1022 199.522 66.0915C200.32 65.7777 201.133 65.4919 201.913 65.1415C202.599 64.832 203.315 64.5333 203.904 64.082C205.359 62.9708 205.318 61.8897 204.508 60.0586C203.897 58.6788 202.792 57.8921 201.223 57.8878C200.501 57.8857 199.765 57.7997 199.062 57.9136C198.428 58.0146 197.822 58.3177 197.218 58.5691C197.089 58.6207 197.003 58.8185 196.938 58.9668C196.773 59.3386 196.362 59.4331 196.081 59.1344C195.762 58.7948 195.668 58.4337 195.913 57.9824C196.444 57.0131 197.315 56.4973 198.312 56.1921C200.266 55.5924 202.231 55.4979 204.157 56.3146C205.106 56.7165 205.813 57.4386 206.445 58.2339C206.507 58.3306 206.572 58.4273 206.634 58.524C207.32 59.6868 207.698 60.9398 207.722 62.2895Z" fill="black"/>
<path d="M195.614 81.7874C195.476 82.5569 195.102 83.1909 194.483 83.6745C194.38 83.7325 194.277 83.7905 194.174 83.8464C192.602 84.5234 191.62 83.9195 190.988 83.0899C190.052 81.8605 190.556 80.0938 191.972 79.462C192.725 79.1267 193.43 78.9999 194.232 79.2621C195.483 79.6704 195.81 80.6913 195.614 81.7874Z" fill="black"/>
<path d="M115.465 54.0579C115.437 54.088 115.407 54.1159 115.379 54.1439C115.377 54.1095 115.375 54.0772 115.375 54.0428C115.405 54.0493 115.435 54.0536 115.465 54.0579Z" fill="black"/>
<path d="M123.191 56.1255C123.176 56.1018 123.159 56.0803 123.148 56.0545C123.148 56.0481 123.166 56.0309 123.174 56.0201C123.194 56.0524 123.2 56.0889 123.191 56.1255Z" fill="black"/>
<path d="M113.732 56.1684C113.698 56.1749 113.663 56.1835 113.629 56.1921C113.655 56.1512 113.689 56.1448 113.732 56.1684Z" fill="black"/>
<path d="M123.084 56.7122C123.069 56.6864 123.052 56.6628 123.043 56.6348C123.043 56.6262 123.064 56.6133 123.077 56.6004C123.097 56.637 123.099 56.6757 123.084 56.7122Z" fill="black"/>
<path d="M122.964 57.5332C122.952 57.5074 122.934 57.4838 122.926 57.4558C122.926 57.4472 122.945 57.4343 122.958 57.4215C122.98 57.458 122.982 57.4945 122.964 57.5332Z" fill="black"/>
<path d="M102.561 51.4251C102.528 51.4014 102.515 51.3692 102.524 51.3283C102.537 51.3606 102.548 51.3928 102.561 51.4251Z" fill="black"/>
<path d="M110.92 45.3792C110.882 45.3771 110.845 45.3749 110.809 45.3728C110.847 45.3534 110.884 45.3556 110.92 45.3792Z" fill="black"/>
<path d="M120.881 62.1906L120.825 62.2057L120.77 62.1949C120.806 62.1928 120.845 62.1928 120.881 62.1906Z" fill="black"/>
<path d="M121.203 41.8308C121.164 41.8179 121.136 41.7921 121.121 41.7556C121.149 41.7792 121.175 41.805 121.203 41.8308Z" fill="black"/>
<path d="M122.14 37.0251C122.101 37.0122 122.076 36.9886 122.061 36.952C122.086 36.9757 122.112 37.0015 122.14 37.0251Z" fill="black"/>
<path d="M110.679 36.8618C110.653 36.894 110.619 36.9112 110.578 36.9134C110.613 36.8962 110.645 36.879 110.679 36.8618Z" fill="black"/>
<path d="M88.3036 77.1021C88.31 78.2068 87.4458 79.0923 86.1301 79.0966C85.3282 79.0987 84.5543 78.2347 84.5586 77.3535C84.5629 76.2875 85.5712 75.3483 86.7127 75.3483C87.6522 75.3461 88.3057 76.0683 88.3036 77.1021Z" fill="black"/>
<path d="M85.1324 74.2543C85.0464 74.8045 84.6487 75.1011 84.1672 75.2172C83.0729 75.4773 81.9615 74.9829 81.295 74.0265C80.5275 72.9283 80.6092 71.7118 80.7748 70.4803C80.7877 70.3835 80.7898 70.2868 80.7984 70.1901C80.8199 70.0698 80.8436 69.9473 80.8651 69.8269C80.8823 69.713 80.8995 69.6012 80.9167 69.4873C80.9382 69.4056 80.9575 69.324 80.979 69.2402C81.3036 67.9979 81.6863 66.7642 81.9357 65.5069C82.1614 64.3678 81.9529 63.2567 81.2413 62.3002C80.7232 61.6039 79.4784 61.1332 78.1026 61.8102C77.0341 62.3368 76.1613 63.1105 75.5035 64.1271C74.6865 65.3887 74.9381 66.6933 75.3143 67.9957C75.4368 68.4213 75.5357 68.7996 75.0821 69.0424C74.6435 69.2767 74.2136 69.1735 73.8825 68.8146C73.1193 67.9914 72.7066 67.0006 72.6055 65.8938C72.3927 63.5425 73.5364 61.8446 75.224 60.3616C76.1549 59.5449 77.1674 58.9044 78.3605 58.6831C80.3018 58.3263 82.0926 58.6336 83.4835 60.2305C84.4165 61.303 84.8723 62.5324 85.0464 63.9423C85.2442 65.5327 84.7562 66.977 84.3714 68.4621C84.1048 69.4852 83.9199 70.5318 83.7436 71.5764C83.6792 71.9654 83.806 72.277 84.2661 72.4662C84.9927 72.7649 85.2657 73.4204 85.1324 74.2543Z" fill="black"/>
<path d="M124.633 33.7497C124.394 33.3499 124.295 32.8642 124.08 32.2774C124.319 32.3999 124.418 32.4171 124.448 32.4709C125.235 33.9259 126.694 34.4353 128.079 35.0285C128.848 35.3573 129.667 35.5679 130.446 35.8731C130.889 36.0472 131.43 36.1783 131.43 36.8962C129.917 36.9821 128.64 36.4298 127.359 35.8882C126.254 35.4196 125.265 34.7963 124.633 33.7497Z" fill="black"/>
<path d="M167.53 31.7466C167.523 32.4107 167.231 32.6793 166.526 32.6793C165.933 32.6793 165.503 32.4171 165.531 31.609C165.552 30.9728 165.862 30.6956 166.582 30.6999C167.324 30.7042 167.536 30.9406 167.53 31.7466Z" fill="black"/>
<path d="M173.745 57.0195C173.155 57.1335 172.713 57.1936 172.283 57.3032C170.965 57.6428 169.729 57.2409 168.482 56.9207C168.389 56.897 168.275 56.7788 168.254 56.6843C168.164 56.2888 168.106 55.8847 168.041 55.5215C169.454 55.4184 170.894 55.3431 172.328 55.1884C172.685 55.1497 173.014 54.8553 173.345 54.6855C171.659 54.5264 169.976 54.3674 168.293 54.2105C168.284 54.1524 168.275 54.0944 168.269 54.0364C170.043 53.4926 171.532 52.5749 172.435 50.877C171.788 51.2639 171.178 51.7302 170.49 52.014C169.469 52.4374 168.4 52.7554 167.334 53.0606C167.145 53.1144 166.781 52.9575 166.659 52.7834C166.091 51.9903 165.575 51.1607 165.053 50.3354C164.576 49.5767 164.599 49.5402 165.231 48.8932C165.498 48.6203 165.711 48.2936 165.936 47.982C166.824 46.7483 168.071 46.0348 169.484 45.5942C171.246 45.0418 172.762 44.0983 174.164 42.9076C174.705 42.4498 175.389 42.1231 176.058 41.8631C176.724 41.6052 177.999 42.2478 178.341 42.914C179.076 44.3476 179.908 45.7446 180.504 47.234C181.295 49.2135 181.217 51.3004 180.609 53.3164C180.379 54.0729 179.841 54.7542 179.358 55.4076C178.377 56.7358 177.367 58.0447 176.311 59.3149C175.393 60.4239 174.301 61.3632 172.919 61.8403C172.394 62.023 171.771 62.0122 171.206 61.9607C170.909 61.9327 170.533 61.6877 170.371 61.4298C169.963 60.7764 169.649 60.0607 169.305 59.3665C169.174 59.1 169.06 58.8228 168.888 58.4402C170.69 58.5992 172.341 58.5025 173.745 57.0195Z" fill="black"/>
<path d="M225.517 116.014C225.487 115.971 225.455 115.928 225.424 115.885C225.345 115.849 225.265 115.812 225.186 115.776C225.145 115.75 225.102 115.726 225.061 115.703C224.771 115.681 224.478 115.642 224.188 115.642C212.27 115.707 200.351 115.773 188.435 115.84C188.261 115.84 188.087 115.819 187.913 115.808C187.607 115.733 187.599 115.632 187.87 115.335C188.177 114.391 188.557 113.463 188.772 112.5C189.061 111.217 189.306 109.915 189.411 108.606C189.553 106.837 189.041 105.15 188.499 103.478C187.917 101.677 186.754 100.243 185.61 98.7923C185.294 98.3925 184.946 98.0078 184.559 97.6768C183.989 97.1889 183.383 96.7397 182.77 96.3056C182.265 95.9467 181.715 95.6522 181.205 95.2954C179.948 94.4186 178.722 93.4879 177.443 92.6411C176.065 91.7277 174.558 91.0614 172.974 90.5929C172.028 90.3135 171.062 90.1029 170.11 89.8471C169.794 89.7633 169.581 89.6924 169.899 89.2733C170.776 88.1148 171.643 86.9392 172.404 85.7034C173.13 84.5234 173.623 83.1952 174.39 82.0453C175.495 80.3969 176.102 78.5356 176.878 76.7496C177.409 75.5267 177.836 74.2565 178.245 72.9841C178.589 71.9181 178.909 70.8327 179.109 69.7302C179.288 68.7523 179.315 67.7443 179.356 66.747C179.408 65.4489 179.479 64.1357 178.643 63.0439C179.324 62.4657 179.96 61.8897 180.633 61.3632C182.394 59.9898 183.787 58.2833 185.101 56.5037C186.175 55.0487 186.659 53.3744 186.737 51.5863C186.762 50.9931 186.732 50.3805 186.61 49.8045C186.38 48.7385 186.193 47.6338 185.746 46.6537C185.184 45.4222 184.35 44.3197 183.688 43.1311C182.925 41.7556 181.96 40.58 180.62 39.7353C178.101 38.147 175.461 38.2781 172.881 39.4366C171.318 40.1394 169.906 41.1839 168.41 42.0458C168.248 42.1403 167.909 42.1489 167.78 42.0415C166.834 41.2591 165.909 40.451 165 39.6279C164.078 38.7939 163.138 37.9923 161.958 37.5431C160.87 37.1304 159.789 36.6877 158.675 36.3546C156.201 35.6152 153.72 34.8995 151.224 34.2504C150.072 33.9517 148.859 33.8958 147.703 33.61C145.583 33.0877 143.42 33.0146 141.264 32.9523C139.884 32.9115 138.491 33.0512 137.111 33.1823C135.449 33.3392 133.974 32.718 132.536 32.0754C130.964 31.3748 129.477 30.4871 127.95 29.6876C127.856 29.6382 127.725 29.6597 127.602 29.6468C127.419 30.5129 127.89 31.1147 128.41 31.6542C130.016 33.3177 132.005 34.3407 134.191 35.0177C134.451 35.0972 134.714 35.166 134.939 35.2305C134.344 36.2836 133.72 37.2701 133.217 38.3125C132.525 39.7461 131.891 41.2097 131.287 42.6819C130.552 44.4765 129.909 46.3034 129.679 48.2485C129.492 49.8325 129.27 51.4143 129.103 53.0005C129.032 53.6796 129.055 54.3674 129.038 55.0508C129.038 55.3001 129.04 55.5495 129.04 55.7988C129.083 57.213 129.113 58.6207 129.449 60.0113C129.818 61.548 130.509 62.7623 132.121 63.2867C133.252 63.6543 134.365 63.6951 135.167 62.7645C135.649 62.2035 135.896 61.3911 136.096 60.6518C136.797 58.0684 137.366 55.4506 138.108 52.8822C138.912 50.1076 139.794 47.3544 141.18 44.7946C141.945 43.3804 142.612 41.9082 143.444 40.537C144.067 39.5096 144.852 38.5726 145.624 37.6441C146.12 37.0466 146.675 36.4728 147.294 36.0085C147.638 35.7485 148.184 35.583 148.608 35.6367C149.816 35.7872 151.007 36.0709 152.222 36.3073C152.189 36.4212 152.189 36.49 152.157 36.5286C150.59 38.3985 149.218 40.3973 148.33 42.6798C147.754 44.1628 147.217 45.6694 146.81 47.2061C146.346 48.9577 146.011 50.7459 145.686 52.5298C145.482 53.6538 145.389 54.8015 145.265 55.9406C145.2 56.5317 145.228 57.1356 145.119 57.7159C144.777 59.5277 145.405 61.0171 146.617 62.2938C147.019 62.7172 147.63 62.8719 148.165 62.6119C149.167 62.124 149.779 61.2256 150.156 60.2219C150.727 58.7024 151.16 57.1292 151.725 55.6075C152.295 54.0794 152.866 52.5427 153.6 51.0919C154.346 49.6132 155.246 48.2055 156.164 46.8214C156.749 45.9402 157.471 45.1471 158.161 44.3411C158.589 43.8404 159.148 43.4406 159.516 42.9054C160.223 41.876 161.169 41.1431 162.203 40.5026C163.046 39.9825 163.057 40.0018 163.8 40.6122C163.934 40.7218 164.076 40.8228 164.22 40.9195C165.181 41.5772 166.144 42.2327 167.156 42.9226C166.212 43.72 165.342 44.4056 164.248 44.7022C163.704 44.8505 163.134 44.9042 162.581 45.0203C162.233 45.0934 161.803 45.2395 161.939 45.6565C162.033 45.9509 162.407 46.3227 162.698 46.3636C164.667 46.6516 166.406 45.9746 167.999 44.8849C168.966 44.2251 169.908 43.518 170.819 42.7829C171.613 42.1425 172.299 41.358 173.124 40.7691C173.855 40.2468 174.676 39.6644 175.523 39.5354C177.024 39.3076 178.402 39.8471 179.578 40.8787C180.698 41.8609 181.298 43.1483 181.906 44.4551C182.673 46.11 183.738 47.6123 184.006 49.5058C184.254 51.2574 184.273 52.9446 183.404 54.5049C182.557 56.0266 181.674 57.544 180.64 58.9388C179.739 60.1553 178.673 61.2707 177.555 62.2959C176.609 63.1642 175.485 63.8326 174.446 64.5978C174.334 64.6816 174.27 64.8299 174.184 64.946C174.225 65.0061 174.263 65.0642 174.304 65.1222C175.388 64.6515 176.471 64.1808 177.488 63.7381C177.488 64.6966 177.555 65.6079 177.471 66.5042C177.366 67.6304 177.247 68.7781 176.938 69.8591C176.039 72.9863 174.848 76.0124 173.522 78.9827C173.496 79.0944 173.492 79.2169 173.438 79.3115C172.264 81.3984 171.277 83.5949 169.796 85.5035C168.9 86.6576 168.083 87.8741 167.199 89.0368C167.025 89.2647 166.688 89.3635 166.451 89.5505C165.907 89.9804 165.262 90.3436 164.867 90.8852C163.934 92.1661 162.771 93.1956 161.586 94.2101C161.206 94.5346 160.763 94.8097 160.307 95.0182C157.749 96.2003 155.096 97.0707 152.277 97.3781C150.201 97.6037 148.133 97.9412 146.052 98.0658C143.24 98.2313 140.421 98.2893 137.603 98.2936C136.216 98.2979 134.821 98.141 133.445 97.939C132.091 97.7391 130.758 97.3888 129.345 97.0901C130.332 93.215 130.287 89.4559 129.238 85.641C130.401 86.3374 131.633 86.6576 132.957 86.5803L134.008 86.5738C134.161 86.5588 134.316 86.5437 134.468 86.5287C134.518 86.5201 134.569 86.5115 134.621 86.5029C134.763 86.4749 134.907 86.4448 135.051 86.4169C135.096 86.3997 135.139 86.3804 135.184 86.3632C137.28 85.7334 138.069 84.1473 138.274 82.1356C138.108 81.3791 137.498 81.1491 136.857 80.9879C135.066 80.5344 133.241 80.6075 131.42 80.6913C130.835 80.7193 130.257 80.874 129.674 80.9707C129.515 81.0352 129.354 81.0997 129.195 81.162C129.137 81.19 129.081 81.2157 129.025 81.2415C128.928 81.306 128.832 81.3705 128.735 81.435C128.615 81.551 128.496 81.6692 128.376 81.7874C128.279 81.9422 128.18 82.0969 128.017 82.3548C127.884 82.0217 127.789 81.7874 127.694 81.5532C127.671 81.5231 127.636 81.4973 127.621 81.4629C126.804 79.7113 125.826 78.0606 124.586 76.5691C124.367 76.3047 124.203 75.9866 124.048 75.6771C123.668 74.927 123.341 74.1469 122.924 73.4183C122.709 73.0379 122.329 72.853 121.853 72.7284C121.391 72.608 120.86 72.896 120.439 72.4232C120.108 72.0492 119.631 71.8106 119.237 71.4883C117.812 70.3255 116.15 69.6184 114.486 68.8941C113.981 68.6749 113.302 68.7437 113.2 67.7163C113.001 65.6917 112.93 63.7316 113.527 61.7694C113.641 61.3997 113.667 60.9591 113.579 60.5873C113.527 60.3724 113.166 60.2327 112.915 60.0371C113.037 59.9726 113.153 59.9103 113.269 59.8501C113.306 59.82 113.342 59.7899 113.381 59.7598V59.7555C113.456 59.6782 113.529 59.6008 113.602 59.5234C113.645 59.4826 113.691 59.4417 113.734 59.4009C113.764 59.3278 113.794 59.2526 113.824 59.1795C113.873 59.0613 113.923 58.9453 113.972 58.8271C113.996 58.7196 114.022 58.6121 114.045 58.5047C113.903 58.5326 113.762 58.5606 113.62 58.5885C113.581 58.6078 113.542 58.6272 113.504 58.6465C113.269 58.7045 113.035 58.7647 112.801 58.8249H112.093C112.018 58.7948 111.943 58.7669 111.865 58.7389C111.668 58.6508 111.468 58.5627 111.268 58.4746C111.231 58.438 111.193 58.4015 111.156 58.365C111.433 58.3091 111.709 58.2511 111.984 58.1952C112.063 58.1715 112.145 58.1479 112.224 58.1243C112.263 58.1243 112.3 58.1114 112.332 58.0899C112.373 58.0619 112.414 58.034 112.455 58.006C112.609 57.9545 112.764 57.9029 112.921 57.8491C112.996 57.8234 113.071 57.7954 113.147 57.7675C113.188 57.7567 113.231 57.7438 113.271 57.7309C113.306 57.7052 113.342 57.6772 113.377 57.6514C113.577 57.5203 113.774 57.3892 113.974 57.2603C114.009 57.2323 114.041 57.2065 114.075 57.1807C114.157 56.9465 114.241 56.7143 114.323 56.4801C114.432 56.2415 114.667 55.9342 114.097 56.061C113.977 56.0954 113.854 56.1319 113.734 56.1684C113.699 56.1749 113.665 56.1835 113.63 56.1921C113.469 56.2243 113.308 56.2587 113.147 56.2909L113.031 56.3619C112.622 56.364 112.209 56.4006 111.807 56.3576C111.382 56.3103 110.973 56.177 110.728 55.6397H111.863C111.902 55.6075 111.941 55.5752 111.982 55.5452C112.02 55.5344 112.055 55.5258 112.093 55.5151C112.132 55.5172 112.173 55.5194 112.214 55.5215C112.33 55.4506 112.446 55.3797 112.562 55.3087C112.644 55.2937 112.723 55.2787 112.803 55.2658C112.841 55.24 112.878 55.2163 112.917 55.1905C112.996 55.1776 113.076 55.1647 113.155 55.1518C113.235 55.1261 113.314 55.1024 113.392 55.0766C113.431 55.0637 113.467 55.0508 113.506 55.0379L113.744 54.9606C113.783 54.9455 113.82 54.9305 113.858 54.9176C113.895 54.8918 113.934 54.866 113.972 54.8402C114.088 54.7908 114.207 54.7435 114.325 54.6962C114.404 54.6661 114.484 54.636 114.563 54.6081C114.641 54.5909 114.718 54.5759 114.796 54.5587C114.83 54.535 114.867 54.5092 114.901 54.4856L114.905 54.477C114.944 54.4426 114.985 54.4061 115.024 54.3717C115.142 54.2943 115.262 54.2191 115.38 54.1439C115.378 54.1095 115.376 54.0772 115.376 54.0428C115.18 54.0514 114.983 54.06 114.785 54.0665C114.475 54.0579 114.164 54.0493 113.854 54.0385C113.813 54.0407 113.774 54.0428 113.734 54.045C113.658 54.045 113.583 54.045 113.506 54.0471C113.188 53.843 112.869 53.6409 112.551 53.4368C112.517 53.3959 112.482 53.3551 112.448 53.3142C112.437 53.2756 112.427 53.2347 112.416 53.196C112.386 53.1208 112.358 53.0434 112.33 52.9682C112.326 52.85 112.323 52.7296 112.321 52.6093C112.403 52.6093 112.485 52.6071 112.566 52.605C112.646 52.7253 112.728 52.8436 112.807 52.9639C112.998 53.0348 113.192 53.1079 113.385 53.181C113.658 53.181 113.931 53.1788 114.204 53.1788C114.4 53.138 114.594 53.0972 114.787 53.0563L115.026 53.0628C115.069 53.0305 115.112 53.0005 115.152 52.9682C115.23 52.9532 115.305 52.9403 115.38 52.9252C115.421 52.8994 115.46 52.8736 115.499 52.85C115.576 52.8393 115.653 52.8285 115.731 52.8178C115.806 52.7877 115.881 52.7576 115.954 52.7275C116.07 52.6437 116.234 52.5856 116.292 52.4717C116.627 51.8248 116.937 51.1671 117.255 50.5138C117.296 50.4729 117.332 50.4321 117.373 50.3913C117.401 50.3526 117.429 50.3117 117.459 50.2731C117.468 50.2322 117.479 50.1935 117.487 50.1549L117.571 50.0388C117.582 49.998 117.593 49.9571 117.603 49.9141C117.629 49.8776 117.657 49.8411 117.683 49.8045C117.694 49.7207 117.706 49.6369 117.717 49.5531C117.747 49.4821 117.775 49.4091 117.805 49.3381C117.816 49.2952 117.827 49.2522 117.838 49.2092C117.868 49.134 117.898 49.0587 117.928 48.9835C118.053 48.6676 118.177 48.3495 118.304 48.0314C118.334 47.9583 118.364 47.8853 118.397 47.8122C118.444 47.6918 118.493 47.5736 118.541 47.4533C118.564 47.4167 118.588 47.3823 118.614 47.3458C118.627 47.2985 118.639 47.2512 118.652 47.2039C118.682 47.1352 118.713 47.0642 118.741 46.9933C119.222 46.2819 119.701 45.5684 120.181 44.857C120.267 44.9816 120.353 45.1063 120.439 45.2309C120.424 45.2675 120.415 45.304 120.413 45.3405C120.366 45.4996 120.318 45.6586 120.271 45.8177C120.243 45.8628 120.215 45.9058 120.187 45.9509C119.889 46.9998 119.592 48.0486 119.293 49.0996C119.297 49.1855 119.304 49.2715 119.308 49.3575C119.263 49.4649 119.218 49.5746 119.175 49.6842C119.179 49.7701 119.186 49.8561 119.192 49.9421L119.031 50.2709C119.026 50.4278 119.022 50.5847 119.018 50.7416C118.983 50.935 118.947 51.1306 118.913 51.324C118.915 51.3649 118.919 51.4036 118.923 51.4444C118.88 51.7947 118.837 52.1451 118.796 52.4954C118.799 52.5362 118.801 52.5749 118.803 52.6157C118.76 52.8887 118.719 53.1616 118.678 53.4346C118.68 53.4733 118.682 53.5141 118.687 53.5528C118.644 53.9031 118.603 54.2556 118.562 54.6059C118.566 54.7263 118.571 54.8488 118.575 54.9692C118.53 55.0573 118.448 55.1454 118.446 55.2357C118.433 56.22 118.429 57.2022 118.435 58.1866C118.435 58.2811 118.508 58.3757 118.549 58.4703C118.553 58.5885 118.558 58.7067 118.562 58.8228C118.713 59.4095 118.865 59.9941 119.016 60.5787C119.132 60.7764 119.248 60.972 119.364 61.1676C119.557 61.3632 119.753 61.5566 119.949 61.7522H119.951C120.067 61.8296 120.183 61.9069 120.301 61.9821L120.306 61.9864C120.342 62.0165 120.379 62.0466 120.413 62.0767C120.533 62.1154 120.652 62.1562 120.77 62.1949C120.806 62.1928 120.845 62.1928 120.882 62.1906C121.041 62.1906 121.2 62.1906 121.357 62.1906C121.434 62.1627 121.512 62.1347 121.587 62.1068H121.589C121.623 62.066 121.658 62.0273 121.692 61.9864C121.774 61.9091 121.858 61.8317 121.939 61.7522C121.982 61.677 122.023 61.5996 122.066 61.5244C122.18 61.1719 122.294 60.8216 122.41 60.4691C122.434 60.4304 122.46 60.3917 122.483 60.3552C122.498 60.237 122.513 60.1188 122.526 60.0005C122.552 59.9619 122.576 59.9253 122.599 59.8866C122.614 59.7254 122.627 59.5664 122.642 59.4074C122.662 59.373 122.681 59.3386 122.703 59.3042C122.791 58.7131 122.879 58.1243 122.965 57.5354C122.952 57.5096 122.935 57.4859 122.926 57.458C122.926 57.4494 122.946 57.4365 122.958 57.4236C122.999 57.1872 123.042 56.9508 123.085 56.7143C123.07 56.6886 123.053 56.6649 123.044 56.637C123.044 56.6284 123.066 56.6155 123.079 56.6026C123.115 56.4457 123.154 56.2866 123.193 56.1276C123.178 56.104 123.161 56.0825 123.15 56.0567C123.15 56.0502 123.167 56.033 123.176 56.0223C123.193 55.8246 123.212 55.6268 123.229 55.4291C123.253 55.3926 123.277 55.3539 123.302 55.3173C123.315 55.1583 123.33 54.9993 123.345 54.8402C123.375 54.765 123.403 54.6876 123.434 54.6124C123.444 54.4942 123.453 54.376 123.464 54.2578C123.487 54.2212 123.513 54.1825 123.537 54.1439C123.629 53.6345 123.722 53.123 123.814 52.6114C123.842 52.5362 123.868 52.461 123.896 52.3879C123.909 52.3471 123.922 52.3084 123.934 52.2676C123.96 52.1515 123.986 52.0354 124.014 51.9194L124.053 51.8033C124.081 51.6851 124.109 51.5669 124.137 51.4487C124.145 51.4036 124.154 51.3606 124.164 51.3176C124.192 51.2445 124.22 51.1714 124.25 51.0962C124.341 50.7846 124.429 50.4708 124.519 50.157C124.545 50.1183 124.571 50.0796 124.594 50.0431C124.609 49.9636 124.622 49.884 124.635 49.8045C124.661 49.7658 124.687 49.7293 124.713 49.6906C124.842 49.2565 124.971 48.8223 125.102 48.3882C125.13 48.3151 125.16 48.2399 125.188 48.1668C125.199 48.1238 125.207 48.0808 125.218 48.0357C125.248 47.9626 125.278 47.8895 125.308 47.8143C125.396 47.5392 125.484 47.2663 125.573 46.9912L125.663 46.759C125.671 46.7182 125.68 46.6774 125.689 46.6365C125.719 46.5592 125.749 46.4839 125.779 46.4087C125.826 46.2475 125.874 46.0842 125.921 45.923C125.949 45.8521 125.977 45.779 126.005 45.7081C126.015 45.6608 126.026 45.6156 126.037 45.5684C126.069 45.4566 126.101 45.347 126.134 45.2374C126.181 45.1149 126.226 44.9924 126.271 44.8699C126.304 44.7968 126.334 44.7237 126.364 44.6506C126.452 44.3777 126.54 44.1047 126.63 43.8318C126.656 43.7931 126.684 43.7523 126.71 43.7136C126.723 43.677 126.736 43.6383 126.749 43.6018C126.774 43.5223 126.8 43.4428 126.828 43.3632C126.839 43.3181 126.847 43.2751 126.858 43.23C126.888 43.1569 126.918 43.0838 126.948 43.0108C126.998 42.9291 127.047 42.8474 127.095 42.7658C127.123 42.7314 127.148 42.6948 127.174 42.6583C127.383 42.1898 127.591 41.7191 127.8 41.2484C127.826 41.2118 127.851 41.1732 127.877 41.1366C127.89 41.0936 127.903 41.0507 127.916 41.0077C127.94 40.9733 127.963 40.9389 127.987 40.9024C128.043 40.7841 128.096 40.6638 128.152 40.5456C128.178 40.4704 128.204 40.393 128.23 40.3178C128.344 40.0964 128.453 39.8772 128.567 39.6579C128.778 39.2539 129.006 38.8498 128.591 38.435C128.563 38.4071 128.535 38.3813 128.507 38.3555C128.268 38.3534 128.032 38.3533 127.795 38.3533C127.718 38.3813 127.641 38.4071 127.563 38.435C127.488 38.4759 127.411 38.5145 127.335 38.5554C127.292 38.5661 127.252 38.579 127.211 38.5919C127.172 38.6177 127.131 38.6435 127.092 38.6693C127.015 38.7058 126.938 38.7467 126.86 38.7853H126.637L126.514 38.7015C126.359 38.6908 126.205 38.6779 126.05 38.6671C126.009 38.6414 125.968 38.6134 125.927 38.5855C125.695 38.5747 125.463 38.5618 125.231 38.5511C125.19 38.5231 125.149 38.4952 125.108 38.4673C124.401 38.1836 123.694 37.8999 122.989 37.6183C122.952 37.5882 122.918 37.5603 122.881 37.5323C122.797 37.4829 122.713 37.4335 122.63 37.384C122.595 37.3561 122.563 37.3282 122.531 37.3002C122.399 37.21 122.27 37.1197 122.142 37.0273C122.103 37.0144 122.077 36.9907 122.062 36.9542C120.94 36.2256 120.2 35.1918 119.682 33.9796C119.654 33.9044 119.624 33.8313 119.594 33.7561C119.51 33.6809 119.426 33.6078 119.265 33.4638V34.6867C119.353 35.4476 119.525 36.1762 120.076 36.7565C120.228 36.9649 120.381 37.1734 120.533 37.3819C120.766 37.6205 121 37.8569 121.232 38.0954C121.314 38.1685 121.396 38.2437 121.475 38.319C121.632 38.4329 121.787 38.5489 121.944 38.6628L121.948 38.6671C122.064 38.7445 122.178 38.824 122.292 38.9014H122.296C122.49 39.0196 122.683 39.1378 122.877 39.256H122.879C122.918 39.2861 122.954 39.3162 122.993 39.3463C123.032 39.357 123.072 39.3656 123.111 39.3742C123.539 39.5354 123.967 39.6966 124.397 39.8557C124.437 39.8815 124.476 39.9073 124.517 39.933C124.713 39.9481 124.906 39.9631 125.1 39.976C125.14 40.0104 125.181 40.0448 125.222 40.077C125.19 40.0942 125.156 40.1028 125.119 40.1007C124.702 40.4961 124.285 40.8895 123.87 41.2828L123.58 41.3666C123.423 41.3773 123.266 41.3881 123.109 41.3988C123.068 41.4268 123.029 41.4547 122.989 41.4805C122.795 41.5278 122.602 41.5751 122.408 41.6202C122.369 41.6524 122.331 41.6847 122.292 41.7169C122.253 41.732 122.215 41.747 122.176 41.7621C122.019 41.9211 121.862 42.0823 121.705 42.2413C121.66 42.2241 121.615 42.2069 121.568 42.1898C121.537 42.164 121.507 42.1382 121.475 42.1124C121.385 42.0178 121.294 41.9254 121.204 41.833C121.165 41.8201 121.138 41.7943 121.122 41.7578C120.772 41.5471 120.422 41.3387 120.071 41.1302C120.03 41.0893 119.992 41.0528 119.951 41.012H119.949C119.91 40.9797 119.871 40.9518 119.833 40.9217C119.751 40.8766 119.671 40.8293 119.59 40.782C119.553 40.7519 119.519 40.724 119.482 40.6939C119.05 40.4102 118.618 40.1265 118.186 39.8428C118.149 39.8041 118.111 39.7676 118.072 39.7289H118.07C118.033 39.6966 117.995 39.6665 117.958 39.6364C117.917 39.6279 117.874 39.6193 117.833 39.6085C117.795 39.572 117.758 39.5333 117.719 39.4946H117.717C117.681 39.4624 117.644 39.4301 117.605 39.4C117.373 39.2732 117.141 39.1464 116.909 39.0196C116.866 38.9852 116.823 38.9508 116.782 38.9165C116.199 38.6371 115.615 38.3598 115.032 38.0825C114.991 38.0417 114.95 38.003 114.912 37.9643C114.834 37.9256 114.757 37.887 114.677 37.8483H114.675C114.634 37.8182 114.598 37.7902 114.559 37.7623C114.321 37.6355 114.084 37.5087 113.845 37.384C113.811 37.3561 113.774 37.3303 113.74 37.3024C113.349 37.1734 112.955 37.0423 112.564 36.9134C112.487 36.8854 112.412 36.8575 112.336 36.8317C111.784 36.8424 111.231 36.8532 110.679 36.8639C110.653 36.8962 110.619 36.9134 110.578 36.9155C110.459 36.922 110.339 36.9284 110.219 36.937C110.184 36.9692 110.15 36.9993 110.116 37.0316C110.07 37.0445 110.027 37.0574 109.982 37.0703C109.946 37.096 109.909 37.1218 109.87 37.1476C109.638 37.268 109.406 37.384 109.174 37.5022L109.17 37.5108C109.051 37.5839 108.933 37.6591 108.815 37.7322C108.774 37.7451 108.735 37.758 108.694 37.7688C108.654 37.7945 108.615 37.8225 108.574 37.8483C108.383 38.0095 108.191 38.1728 107.998 38.334C107.654 38.6822 107.308 39.0325 106.964 39.3828L106.951 39.4043C106.874 39.5139 106.798 39.6214 106.721 39.731L106.712 39.7461C106.323 40.4446 105.934 41.1409 105.545 41.8373C105.506 41.9168 105.468 41.9942 105.429 42.0737C105.238 42.5014 105.044 42.9291 104.851 43.3589C104.844 43.3976 104.838 43.4363 104.829 43.475C104.446 44.296 104.066 45.117 103.683 45.9359C103.675 45.9746 103.666 46.0133 103.658 46.0519C103.634 46.0906 103.608 46.1272 103.584 46.1659C103.572 46.2497 103.556 46.3335 103.544 46.4173C103.52 46.4517 103.496 46.4839 103.473 46.5162C103.47 46.6 103.468 46.686 103.466 46.7719C103.341 47.234 103.217 47.6983 103.092 48.1625C103.094 48.2033 103.096 48.242 103.096 48.2807C103.056 48.4376 103.015 48.5924 102.976 48.7492C102.976 48.7879 102.978 48.8288 102.98 48.8675C102.939 49.0243 102.899 49.1791 102.858 49.3338C102.858 49.3747 102.86 49.4134 102.862 49.4542C102.744 50.0001 102.626 50.546 102.507 51.0919C102.514 51.1714 102.52 51.251 102.525 51.3305C102.537 51.3627 102.548 51.395 102.561 51.4272C102.546 51.5153 102.529 51.6013 102.514 51.6873C102.471 51.9194 102.43 52.1494 102.389 52.3815V53.3185C102.424 53.5356 102.411 53.7742 102.497 53.9698C102.83 54.7327 103.193 55.4828 103.546 56.2372L103.55 56.2437C103.864 56.7401 104.178 57.2366 104.492 57.7331L104.505 57.7632C104.578 57.8749 104.649 57.9867 104.722 58.0985L104.732 58.1157C104.806 58.2296 104.881 58.3413 104.954 58.4531L104.965 58.4681C105.117 58.6981 105.27 58.9259 105.425 59.1559L105.433 59.1709C105.547 59.3257 105.659 59.4826 105.771 59.6373L105.775 59.6438C106.138 60.0306 106.433 60.5465 106.876 60.7807C107.712 61.2235 108.632 61.505 109.518 61.8532L109.634 61.8467C110.064 61.8167 110.494 61.7866 110.924 61.7565C110.965 61.75 111.003 61.7414 111.042 61.735C111.081 61.7027 111.119 61.6705 111.158 61.6383C111.539 61.3911 111.491 61.0472 111.216 60.8194C110.733 60.4239 110.186 60.1037 109.666 59.7512C109.617 59.7297 109.569 59.7082 109.522 59.6846C109.445 59.6717 109.37 59.6567 109.292 59.6438L109.17 59.5599C108.978 59.5084 108.787 59.4568 108.598 59.4052C108.553 59.3665 108.51 59.3257 108.467 59.287C108.108 58.9775 107.751 58.6702 107.394 58.3607C107.325 58.2704 107.256 58.1801 107.187 58.0877C107.076 57.9093 106.968 57.7266 106.85 57.5504C106.016 56.3339 105.18 55.1196 104.345 53.9031C104.317 53.8408 104.29 53.7785 104.264 53.7183C104.232 53.6237 104.201 53.5313 104.171 53.4368C104.12 53.3508 104.068 53.2648 104.019 53.181C104.01 53.0284 104.001 52.8779 103.993 52.7275C103.963 52.5642 103.933 52.403 103.903 52.2396V50.4149C103.931 50.3676 103.961 50.3203 103.989 50.2731C103.997 50.1226 104.006 49.97 104.014 49.8174C104.042 49.7744 104.07 49.7315 104.098 49.6885C104.109 49.4972 104.12 49.3059 104.133 49.1146C104.158 49.0716 104.186 49.0286 104.214 48.9857C104.307 48.5279 104.399 48.0679 104.489 47.608C104.52 47.5199 104.55 47.4318 104.578 47.3458C104.627 47.1953 104.674 47.047 104.722 46.8987C104.743 46.8536 104.767 46.8085 104.788 46.7633L105.427 45.3771C105.455 45.3298 105.483 45.2825 105.511 45.2352C105.551 45.2202 105.562 45.1944 105.547 45.1557C105.579 45.1041 105.61 45.0525 105.642 44.9988L106.474 43.4836C106.502 43.4428 106.527 43.4019 106.555 43.3611C106.596 43.3417 106.609 43.3117 106.598 43.2687C106.631 43.2192 106.665 43.172 106.697 43.1225C106.88 42.8496 107.084 42.5874 107.241 42.2994C108.11 40.6917 109.322 39.4602 111.042 38.7703C111.081 38.7682 111.117 38.7682 111.156 38.766C111.197 38.7682 111.236 38.7703 111.274 38.7725C111.47 38.7703 111.666 38.7703 111.861 38.7703C111.902 38.7682 111.941 38.766 111.979 38.766C112.018 38.766 112.055 38.7617 112.093 38.7596C112.272 38.8133 112.452 38.867 112.633 38.9229C112.687 38.9487 112.743 38.9766 112.796 39.0046L112.831 39.0411L112.88 39.0368C112.93 39.0648 112.981 39.0948 113.031 39.1228C113.422 39.3248 113.811 39.5268 114.2 39.7267C114.241 39.759 114.28 39.7912 114.321 39.8234C114.361 39.8234 114.404 39.8234 114.445 39.8256C114.52 39.8643 114.598 39.903 114.675 39.9416C114.774 39.9545 114.873 39.9653 114.972 39.9782C115.028 40.0018 115.084 40.0255 115.14 40.0491C115.279 40.1028 115.421 40.1566 115.563 40.2103C115.617 40.2382 115.673 40.2662 115.726 40.2941C116.348 40.6144 116.967 40.9346 117.588 41.2548L117.717 41.3387C118.21 41.588 118.702 41.8373 119.194 42.0866C119.25 42.1124 119.304 42.1382 119.36 42.1661L119.401 42.2005L119.454 42.1962C119.499 42.222 119.547 42.2478 119.592 42.2736C120.052 42.5164 120.51 42.7615 120.968 43.0043C120.946 43.086 120.925 43.1655 120.903 43.245C119.742 44.5238 118.579 45.8026 117.399 47.1008C117.117 46.9998 116.778 46.8773 116.438 46.7547C116.397 46.7225 116.356 46.6924 116.318 46.6623C116.296 46.6215 116.266 46.6107 116.225 46.6279C116.178 46.6043 116.131 46.5807 116.086 46.5549C115.944 46.499 115.802 46.4431 115.66 46.3872C115.606 46.3614 115.552 46.3356 115.496 46.3099C115.357 46.2583 115.217 46.2045 115.077 46.153C114.707 46.0283 114.34 45.9036 113.97 45.779C113.076 45.6737 112.179 45.5684 111.285 45.4631C111.244 45.4373 111.203 45.4093 111.162 45.3814H110.922C110.883 45.3792 110.846 45.3771 110.81 45.3749C110.612 45.4158 110.414 45.4566 110.219 45.4974C110.161 45.5211 110.105 45.5447 110.049 45.5684C109.434 45.7446 109.054 46.168 108.806 46.7354C108.778 46.7805 108.75 46.8257 108.722 46.8708C108.684 46.8923 108.673 46.9245 108.688 46.9675C108.664 47.0127 108.639 47.0578 108.615 47.1029C108.572 47.2254 108.529 47.3458 108.486 47.4661C108.462 47.5435 108.437 47.6187 108.413 47.694C108.357 47.8917 108.301 48.0873 108.243 48.285C108.148 48.5967 108.052 48.9061 107.955 49.2178C107.925 49.3209 107.893 49.4241 107.863 49.5273C107.841 49.5789 107.82 49.6304 107.798 49.6799C107.774 49.7723 107.751 49.8626 107.729 49.9528C107.706 50.0195 107.684 50.0861 107.66 50.1527C107.65 50.215 107.637 50.2752 107.626 50.3375C107.607 50.3913 107.587 50.445 107.57 50.4987C107.523 50.7373 107.476 50.978 107.428 51.2166C107.383 51.5863 107.295 51.9581 107.301 52.3277C107.312 52.9682 107.381 53.6087 107.426 54.2492C107.45 54.3674 107.471 54.4877 107.495 54.6059C107.51 54.6833 107.525 54.7607 107.538 54.8381C107.581 54.995 107.622 55.154 107.663 55.313C107.688 55.3732 107.714 55.4355 107.74 55.4957C107.755 55.5516 107.772 55.6096 107.787 55.6655C107.811 55.7192 107.837 55.773 107.86 55.8289C107.912 56.0072 107.964 56.1878 108.015 56.3662C108.045 56.4092 108.078 56.4521 108.108 56.493C108.641 57.991 109.827 58.8335 111.158 59.5256C111.238 59.56 111.315 59.5965 111.392 59.6309C111.773 59.8651 112.154 60.0973 112.573 60.3573C110.861 62.5646 110.692 65.1695 110.834 67.8969C110.386 67.8324 110.01 67.7765 109.636 67.7206C109.514 67.7034 109.393 67.6862 109.271 67.6691L105.775 67.7529C105.655 67.7808 105.534 67.8088 105.414 67.8367C104.808 67.9721 104.191 68.0731 103.595 68.245C100.828 69.036 98.5625 70.577 96.8383 72.8788C95.4453 74.7379 94.3295 76.7174 94.1511 79.1267C94.0436 80.5688 93.7319 81.9938 93.605 83.4359C93.5513 84.0463 93.7835 84.676 93.805 85.2993C93.8673 87.0746 94.2457 88.7897 94.7595 90.4768C95.5657 93.1247 96.7846 95.5727 98.3926 97.8273C98.4657 97.9132 98.5388 97.9992 98.6119 98.0852C98.6592 98.1518 98.7065 98.2184 98.7538 98.285C98.8226 98.3753 98.8935 98.4656 98.9623 98.5537C99.0118 98.6203 99.0591 98.6848 99.1085 98.7493C99.1795 98.8395 99.2526 98.9277 99.3235 99.0179C99.4095 99.1232 99.4933 99.2286 99.5772 99.3339C99.6847 99.465 99.7943 99.5939 99.9018 99.725C100.104 99.9507 100.306 100.176 100.506 100.402C100.622 100.527 100.736 100.651 100.852 100.774C101.046 100.969 101.239 101.165 101.432 101.361C101.635 101.552 101.837 101.745 102.039 101.939C103.662 103.508 105.517 104.752 107.542 105.758C106.334 107.303 105.461 108.986 104.689 110.738C103.905 112.519 103.769 114.426 103.494 116.328C103.415 116.334 103.339 116.343 103.264 116.345C94.8154 116.47 86.3667 116.586 77.9179 116.728C76.5894 116.749 75.2651 116.891 73.9365 116.958C72.8552 117.009 71.7695 117.011 70.6882 117.076C70.2582 117.1 69.8218 117.188 69.4155 117.325C69.2327 117.39 68.9705 117.686 69.0027 117.809C69.0565 118.019 69.2908 118.284 69.495 118.333C70.0647 118.469 70.6538 118.544 71.2385 118.574C72.5176 118.638 73.7968 118.677 75.0759 118.696C77.847 118.737 80.6181 118.759 83.3892 118.787C84.0148 118.804 84.6382 118.821 85.2617 118.838C88.3746 118.851 91.4875 118.864 94.6004 118.877C95.3937 118.886 96.1848 118.896 96.9759 118.907C98.3454 118.913 99.7148 118.918 101.082 118.924H103.61C103.731 119.408 103.868 119.924 103.991 120.442C104.414 122.219 105.44 123.506 107.069 124.342C107.931 124.785 108.735 125.346 109.604 125.774C110.696 126.313 111.803 126.849 112.951 127.242C114.273 127.693 115.656 127.575 116.997 127.25C118.068 126.99 119.147 126.713 120.17 126.313C122.051 125.576 123.692 124.489 124.812 122.735C124.984 122.468 125.319 122.311 125.562 122.086C125.742 121.92 125.897 121.729 126.108 121.499C126.344 121.91 126.587 122.337 126.837 122.761C127.789 124.373 128.709 126.006 129.707 127.588C130.771 129.273 132.231 129.458 133.86 129.094C134.198 129.019 134.46 128.604 134.793 128.314C135.103 128.658 135.421 129.11 135.834 129.445C136.752 130.191 137.659 130.984 138.684 131.557C139.422 131.97 140.325 132.168 141.178 132.273C142.765 132.469 144.366 132.527 145.963 132.643C146.041 132.647 146.12 132.651 146.198 132.654H151.942C152.019 132.656 152.097 132.656 152.174 132.656C153.952 132.37 155.751 132.176 157.504 131.779C160.859 131.014 164.211 130.214 167.517 129.264C169.203 128.781 170.871 128.095 172.393 127.231C175.854 125.275 179.24 123.184 182.611 121.078C183.677 120.412 184.598 119.509 185.599 118.735C185.784 118.591 186.038 118.462 186.261 118.46C189.695 118.428 193.13 118.419 196.563 118.406C197.17 118.408 197.776 118.408 198.384 118.411C204.784 118.376 211.184 118.344 217.582 118.307C219.945 118.295 222.305 118.282 224.666 118.252C225.293 118.243 225.71 117.91 225.934 117.308C226.14 116.751 225.833 116.39 225.517 116.016V116.014ZM126.936 40.393C126.936 40.393 126.923 40.3887 126.914 40.3822C126.923 40.3865 126.929 40.3908 126.936 40.393ZM102.808 98.9513C100.912 97.0901 99.3794 94.9623 98.1626 92.6003C97.0705 90.4811 96.3718 88.2244 95.9462 85.8968C95.5399 83.6702 95.8709 81.4629 96.4772 79.3029C97.2275 76.6314 98.599 74.3532 100.813 72.6338C102.439 71.3722 104.275 70.6565 106.332 70.405C107.835 70.2224 109.299 70.3964 110.773 70.5555C111.147 70.5942 111.455 70.7016 111.633 71.125C111.913 71.7934 112.444 72.1008 113.196 71.9095C113.278 71.7354 113.362 71.5527 113.454 71.3529C115.598 72.1717 117.481 73.3474 119.198 74.7959C119.36 74.9335 119.523 75.2473 119.476 75.4235C119.138 76.726 119.613 77.8393 120.209 78.9354C120.402 79.1245 120.583 79.3309 120.794 79.5006C121.679 80.2228 122.369 80.2185 123.416 79.4748C124.384 80.8482 125.186 82.3097 125.796 83.8744C126.089 84.6266 126.396 85.3831 126.598 86.1612C127.224 88.5812 127.639 91.0313 127.307 93.5438C127.213 94.2681 127.073 94.9881 126.929 95.7059C126.843 96.1401 126.596 96.2777 126.134 96.1551C123.717 95.5168 121.585 94.3111 119.562 92.8947C118.667 92.2672 117.801 91.5966 116.95 90.911C114.727 89.1164 113.364 86.8854 113.112 83.9517C112.998 82.6149 113.218 81.3877 113.514 80.1304C113.65 79.4641 113.856 78.8043 113.908 78.1316C113.985 77.1343 113.985 76.1285 113.949 75.1269C113.936 74.7315 113.652 74.4993 113.162 74.7272C113.162 75.4944 113.166 76.2918 113.16 77.087C113.16 77.2611 113.149 77.4395 113.112 77.6072C112.74 79.3803 112.317 81.1448 111.999 82.9265C111.668 84.777 111.717 86.6361 112.461 88.3899C113.205 90.1459 114.243 91.6998 115.765 92.9162C117.722 94.4766 119.719 95.9768 122.015 96.9998C123.262 97.5564 124.579 97.9562 125.904 98.4419C125.048 100.301 123.698 101.827 121.929 102.975C120.432 103.944 118.788 104.529 116.999 104.638C115.954 104.703 114.884 104.87 113.865 104.718C112.562 104.524 111.268 104.144 110.023 103.693C107.252 102.689 104.902 101.006 102.808 98.9513ZM123.507 120.846C122.101 122.642 120.291 123.728 118.113 124.231C117.003 124.486 115.868 124.749 114.74 124.774C113.142 124.809 111.749 124.044 110.397 123.261C110.315 123.216 110.253 123.036 110.272 122.935C110.821 120.01 111.506 117.127 112.792 114.415C113.615 112.681 114.811 111.266 116.352 110.153C116.72 109.889 117.234 109.829 117.5 109.736C118.99 109.882 120.054 110.222 120.677 111.52C121.486 113.203 122.43 114.821 123.32 116.463C123.412 116.633 123.528 116.794 123.657 116.94C124.106 117.454 124.352 117.974 124.326 118.731C124.298 119.584 124.027 120.179 123.507 120.846ZM131.977 127.461C131.485 127.184 131.076 126.677 130.756 126.189C130.171 125.301 129.692 124.345 129.146 123.429C127.763 121.106 126.351 118.8 124.979 116.47C123.373 113.738 121.787 110.994 120.217 108.24C119.981 107.828 119.88 107.336 119.764 107.015C121.101 106.162 122.243 105.436 123.38 104.703C123.861 104.393 124.096 104.458 124.388 104.952C125.502 106.85 126.635 108.737 127.744 110.639C128.361 111.698 128.894 112.812 129.556 113.843C130.5 115.318 131.48 116.777 132.536 118.174C133.112 118.939 133.32 119.799 133.394 120.665C133.555 122.556 133.591 124.459 133.656 126.358C133.69 127.358 132.848 127.951 131.977 127.461ZM153.361 131.029C153.311 131.035 153.26 131.042 153.208 131.048C153.021 131.072 152.832 131.098 152.645 131.121C152.527 131.128 152.409 131.132 152.292 131.138C151.198 131.136 150.106 131.134 149.012 131.132C148.855 131.13 148.698 131.128 148.541 131.125C146.899 130.969 145.254 130.829 143.614 130.653C142.683 130.552 141.758 130.406 140.838 130.251C139.888 130.092 139.093 129.604 138.364 128.993C136.259 127.229 135.01 124.974 134.475 122.294C134.258 121.209 134.292 120.134 134.638 119.111C134.815 118.591 135.223 118.123 135.604 117.703C136.167 117.089 136.779 116.511 137.416 115.973C137.648 115.778 138.016 115.743 138.323 115.64C139.955 115.092 141.58 114.525 143.22 114.005C143.94 113.775 144.689 113.629 145.43 113.469C145.553 113.444 145.721 113.525 145.843 113.598C149.235 115.606 151.379 118.699 153.137 122.097C153.574 122.937 153.744 123.915 154.053 124.822C154.255 125.415 154.528 125.985 154.702 126.584C155.018 127.678 155.281 128.787 155.575 129.888C155.633 130.102 155.741 130.307 155.861 130.61C154.993 130.754 154.178 130.891 153.361 131.029ZM161.638 103.981C159.84 105.442 157.796 106.495 155.719 107.484C153.262 108.655 150.828 109.893 148.309 110.91C146.737 111.544 145.026 111.832 143.371 112.251C143.199 112.296 142.988 112.186 142.795 112.148C142.937 111.991 143.048 111.754 143.225 111.686C144.147 111.335 145.078 110.991 146.024 110.71C148.541 109.96 150.798 108.638 153.139 107.503C154.96 106.62 156.779 105.736 158.6 104.857C160.191 104.09 161.704 103.198 163.115 102.109C162.854 102.921 162.263 103.469 161.638 103.981Z" fill="black"/>
<path d="M163.764 20.0396C163.407 19.3605 163.751 18.7802 164.628 18.4664C166.049 17.9592 167.546 17.813 169.014 18.2987C170.484 18.7845 171.095 20.3255 170.407 21.7461C169.863 22.8659 168.954 23.674 168.182 24.6046C167.589 25.3203 167.105 26.0833 167.593 27.1021C167.879 27.7038 167.632 28.3078 167.086 28.6667C166.621 28.9697 165.908 28.8924 165.473 28.4582C165.228 28.2154 165.022 27.9295 164.798 27.663C164.766 27.5813 164.732 27.5018 164.699 27.4223C164.704 26.7173 164.71 26.0145 164.714 25.3096C164.742 25.2279 164.768 25.1484 164.796 25.0667C165.099 23.9835 165.798 23.1754 166.587 22.4103C167.068 21.9439 167.466 21.3872 167.896 20.8628C168.107 20.6049 168.038 20.4007 167.731 20.2975C167.427 20.1987 167.118 20.0611 166.808 20.0525C165.807 20.0203 164.805 20.0396 163.764 20.0396Z" fill="black"/>
</g>
<defs>
<clipPath id="clip0_2848_20753">
<rect width="157" height="118" fill="white" transform="translate(69 18)"/>
</clipPath>
</defs>
</svg>
